<svg width="156" height="156" viewBox="0 0 156 156" fill="none" xmlns="http://www.w3.org/2000/svg">
<path d="M116.018 133.715H88.1336C80.0458 133.715 73.4892 127.159 73.4892 119.071V57.0345C73.4892 48.9467 80.0458 42.3901 88.1336 42.3901H116.018C124.105 42.3901 130.662 48.9467 130.662 57.0345V119.071C130.662 127.159 124.105 133.715 116.018 133.715V133.715Z" fill="#CCF1FF"/>
<path d="M116.018 42.3899H106.821C114.909 42.3899 121.466 48.9465 121.466 57.0343V119.071C121.466 127.158 114.909 133.715 106.821 133.715H116.018C124.105 133.715 130.662 127.158 130.662 119.071V57.0346C130.662 48.9465 124.105 42.3899 116.018 42.3899V42.3899Z" fill="#AFE2F5"/>
<path d="M68.5484 2.29907H30.8224C27.7935 2.29907 25.3381 4.75447 25.3381 7.7834V153.701H35.6072V16.0312C35.6072 14.1187 37.1577 12.5682 39.0702 12.5682H68.5484V2.29907Z" fill="#065370"/>
<path d="M59 2H139V13H59V2Z" fill="#002A3A"/>
<path d="M97 8H107V33H97V8Z" fill="#002A3A"/>
<path d="M105.892 32.5217H98.259C94.2758 32.5217 91.0464 35.7508 91.0464 39.7343V42.3899H113.104V39.7343C113.104 35.7508 109.875 32.5217 105.892 32.5217V32.5217Z" fill="#1496C5"/>
<path d="M105.892 32.5217H98.259C97.9947 32.5217 97.7342 32.5367 97.4773 32.5646C101.093 32.9543 103.908 36.0151 103.908 39.7343V42.3899H113.104V39.7343C113.104 35.7508 109.875 32.5217 105.892 32.5217V32.5217Z" fill="#1F7EA1"/>
<path d="M98.259 143.583H105.892C109.875 143.583 113.104 140.354 113.104 136.37V133.715H91.0464V136.37C91.0464 140.354 94.2758 143.583 98.259 143.583V143.583Z" fill="#1496C5"/>
<path d="M103.908 133.715V136.371C103.908 140.09 101.093 143.15 97.4773 143.54C97.7342 143.568 97.9947 143.583 98.259 143.583H105.892C109.875 143.583 113.104 140.354 113.104 136.371V133.715H103.908Z" fill="#1F7EA1"/>
<path d="M73.4889 64.396V119.07C73.4889 127.158 80.0455 133.715 88.1333 133.715H116.017C124.105 133.715 130.662 127.158 130.662 119.07V64.396H73.4889Z" fill="#05ABE8"/>
<path d="M121.466 64.396V119.07C121.466 127.158 114.909 133.715 106.821 133.715H116.018C124.105 133.715 130.662 127.158 130.662 119.07V64.396H121.466Z" fill="#0689B9"/>
<path d="M97.2584 104.978H89.1523C86.4811 104.978 84.3153 102.812 84.3153 100.141V80.8096C84.3153 78.1384 86.4808 75.9727 89.1523 75.9727H97.2584C99.9296 75.9727 102.095 78.1381 102.095 80.8096V100.141C102.095 102.812 99.9299 104.978 97.2584 104.978Z" fill="#CCF1FF"/>
<path d="M97.2584 75.9727H89.1523C88.9677 75.9727 88.7863 75.9852 88.6072 76.0055C91.0216 76.2764 92.8991 78.3229 92.8991 80.8096V100.141C92.8991 102.627 91.0216 104.674 88.6072 104.945C88.7863 104.965 88.9677 104.978 89.1523 104.978H97.2584C99.9296 104.978 102.095 102.812 102.095 100.141V80.8096C102.095 78.1384 99.9299 75.9727 97.2584 75.9727V75.9727Z" fill="#AFE2F5"/>
</svg>
