<svg width="156" height="156" viewBox="0 0 156 156" fill="none" xmlns="http://www.w3.org/2000/svg">
<rect width="156" height="156" fill="white"/>
<path d="M79.3602 156C49.89 156 26 132.11 26 102.64V18.833C26 8.43185 34.4318 0 44.833 0H113.887C124.288 0 132.72 8.43185 132.72 18.833V102.64C132.72 132.11 108.83 156 79.3602 156Z" fill="#E1E1E3"/>
<path d="M113.887 9.4165H104.471L79.3602 146.583C103.63 146.583 123.304 126.909 123.304 102.64V18.833C123.304 13.6323 119.088 9.4165 113.887 9.4165Z" fill="#018BBD"/>
<path d="M113.887 102.64L90.3461 60.7364L113.887 18.833C113.887 13.6323 109.672 9.4165 104.471 9.4165H44.833C39.6323 9.4165 35.4165 13.6323 35.4165 18.833V102.64C35.4165 126.909 55.0907 146.583 79.3602 146.583C98.4289 146.583 113.887 126.909 113.887 102.64Z" fill="#05ABE8"/>
<path d="M79.3602 112.056V137.167C86.2942 137.167 91.9155 131.546 91.9155 124.612C91.9155 117.678 86.2942 112.056 79.3602 112.056Z" fill="#D6F9FA"/>
<path d="M82.499 124.612C82.499 117.678 81.0937 112.056 79.3601 112.056C72.4261 112.056 66.8048 117.678 66.8048 124.612C66.8048 131.546 72.4261 137.167 79.3601 137.167C81.0937 137.167 82.499 131.546 82.499 124.612Z" fill="white"/>
<path d="M104.471 18.833L76.2213 60.7364L104.471 102.64H113.887V18.833H104.471Z" fill="#005F81"/>
<path d="M44.833 18.833V102.64H104.471V93.2233L95.0543 79.0986L104.471 64.9738V18.833H44.833Z" fill="#04739B"/>
<path d="M87.7305 64.9739L78.314 79.0986L87.7305 93.2234H104.471V64.9739H87.7305Z" fill="#018BBD"/>
<path d="M70.9898 64.9739L61.5733 79.0986L70.9898 93.2234H87.7305V64.9739H70.9898Z" fill="#05ABE8"/>
<path d="M54.2495 64.9739H70.9898V93.2234H54.2495V64.9739Z" fill="#65D6FF"/>
<path d="M85.6378 28.2495C84.7025 28.2495 83.8 28.3876 82.9472 28.6416L79.3602 55.5574C79.3602 55.5574 95.0543 48.8908 95.0543 37.666C95.0543 32.4653 90.8386 28.2495 85.6378 28.2495Z" fill="#EBEBEB"/>
<path d="M82.9472 28.6416C81.601 29.0427 80.3803 29.7357 79.3601 30.6491C77.6941 29.1576 75.4947 28.2495 73.0825 28.2495C67.8818 28.2495 63.666 32.4653 63.666 37.666C63.666 48.8908 79.3601 55.5574 79.3601 55.5574C79.3601 55.5574 85.6378 48.8908 85.6378 37.666C85.6378 33.4007 84.5031 29.7995 82.9472 28.6416Z" fill="white"/>
</svg>
