<svg width="156" height="156" viewBox="0 0 156 156" fill="none" xmlns="http://www.w3.org/2000/svg">
<path d="M140.765 104.203C138.241 104.203 136.195 102.157 136.195 99.6328V41.1328C136.195 28.5325 125.943 18.2812 113.343 18.2812H36.5619C34.0379 18.2812 31.9916 16.235 31.9916 13.7109C31.9916 11.1869 34.0379 9.14062 36.5619 9.14062H113.343C130.984 9.14062 145.335 23.4923 145.335 41.1328V99.6328C145.335 102.157 143.289 104.203 140.765 104.203Z" fill="#004F6C"/>
<path d="M68.5547 85.9219H50.2734C47.7494 85.9219 45.7031 83.8756 45.7031 81.3516C45.7031 78.8275 47.7494 76.7812 50.2734 76.7812H68.5547C71.0787 76.7812 73.125 78.8275 73.125 81.3516C73.125 83.8756 71.0787 85.9219 68.5547 85.9219Z" fill="#0079A5"/>
<path d="M68.5547 128.578H50.2734C47.7494 128.578 45.7031 126.532 45.7031 124.008C45.7031 121.484 47.7494 119.438 50.2734 119.438H68.5547C71.0787 119.438 73.125 121.484 73.125 124.008C73.125 126.532 71.0787 128.578 68.5547 128.578Z" fill="#0079A5"/>
<path d="M91.4062 43.2656C88.8822 43.2656 86.8359 41.2193 86.8359 38.6953V22.8516C86.8359 20.3275 88.8822 18.2812 91.4062 18.2812C93.9303 18.2812 95.9766 20.3275 95.9766 22.8516V38.6953C95.9766 41.2193 93.9303 43.2656 91.4062 43.2656Z" fill="#0079A5"/>
<path d="M95.9766 38.6953V22.8516C95.9766 20.3275 93.9303 18.2812 91.4062 18.2812V43.2656C93.9303 43.2656 95.9766 41.2193 95.9766 38.6953Z" fill="#004F6C"/>
<path d="M100.547 27.4219H82.2656C79.7416 27.4219 77.6953 25.3756 77.6953 22.8516V13.7109C77.6953 6.13854 83.8339 0 91.4062 0C98.9786 0 105.117 6.13854 105.117 13.7109V22.8516C105.117 25.3756 103.071 27.4219 100.547 27.4219Z" fill="white"/>
<path d="M105.117 22.8516V13.7109C105.117 6.13854 98.9786 0 91.4062 0V27.4219H100.547C103.071 27.4219 105.117 25.3756 105.117 22.8516Z" fill="#EAF9FF"/>
<path d="M118.828 61.5469C118.828 46.4265 106.527 34.125 91.4062 34.125C76.2858 34.125 63.9844 46.4265 63.9844 61.5469V64.5938L72.5156 101.156L63.9844 137.719V151.43C63.9844 153.954 66.0307 156 68.5547 156H114.258C116.782 156 118.828 153.954 118.828 151.43V137.719L110.906 101.156L118.828 64.5938V61.5469Z" fill="#05ABE8"/>
<path d="M118.828 61.5469C118.828 46.4265 106.527 34.125 91.4062 34.125V156H114.258C116.782 156 118.828 153.954 118.828 151.43V137.719L110.906 101.156L118.828 64.5938V61.5469Z" fill="#029CD5"/>
<path d="M63.9844 64.5938H118.828V137.719H63.9844V64.5938Z" fill="white"/>
<path d="M91.4062 64.5938H118.828V137.719H91.4062V64.5938Z" fill="#EAF9FF"/>
<path d="M151.429 131.625H130.101C127.377 131.625 125.258 129.257 125.559 126.55L128.606 99.1282C128.863 96.8138 130.819 95.0625 133.148 95.0625H148.382C150.711 95.0625 152.667 96.8135 152.925 99.1282L155.971 126.55C156.272 129.257 154.153 131.625 151.429 131.625Z" fill="#05ABE8"/>
<path d="M99.0234 96.5859H83.7891C81.265 96.5859 79.2188 94.5397 79.2188 92.0156C79.2188 89.4916 81.265 87.4453 83.7891 87.4453H99.0234C101.547 87.4453 103.594 89.4916 103.594 92.0156C103.594 94.5397 101.547 96.5859 99.0234 96.5859Z" fill="#0079A5"/>
<path d="M99.0234 114.867H83.7891C81.265 114.867 79.2188 112.821 79.2188 110.297C79.2188 107.773 81.265 105.727 83.7891 105.727H99.0234C101.547 105.727 103.594 107.773 103.594 110.297C103.594 112.821 101.547 114.867 99.0234 114.867Z" fill="#0079A5"/>
<path d="M103.594 92.0156C103.594 89.4916 101.547 87.4453 99.0234 87.4453H91.4062V96.5859H99.0234C101.547 96.5859 103.594 94.5397 103.594 92.0156Z" fill="#004F6C"/>
<path d="M99.0234 105.727H91.4062V114.867H99.0234C101.547 114.867 103.594 112.821 103.594 110.297C103.594 107.773 101.547 105.727 99.0234 105.727Z" fill="#004F6C"/>
<path d="M27.4219 43.2656C24.8978 43.2656 22.8516 41.2193 22.8516 38.6953V22.8516C22.8516 20.3275 24.8978 18.2812 27.4219 18.2812C29.9459 18.2812 31.9922 20.3275 31.9922 22.8516V38.6953C31.9922 41.2193 29.9459 43.2656 27.4219 43.2656Z" fill="#0079A5"/>
<path d="M31.9922 38.6953V22.8516C31.9922 20.3275 29.9459 18.2812 27.4219 18.2812V43.2656C29.9459 43.2656 31.9922 41.2193 31.9922 38.6953Z" fill="#004F6C"/>
<path d="M36.5625 27.4219H18.2812C15.7572 27.4219 13.7109 25.3756 13.7109 22.8516V13.7109C13.7109 6.13854 19.8495 0 27.4219 0C34.9943 0 41.1328 6.13854 41.1328 13.7109V22.8516C41.1328 25.3756 39.0865 27.4219 36.5625 27.4219Z" fill="white"/>
<path d="M41.1328 22.8516V13.7109C41.1328 6.13854 34.9943 0 27.4219 0V27.4219H36.5625C39.0865 27.4219 41.1328 25.3756 41.1328 22.8516Z" fill="#EAF9FF"/>
<path d="M54.8438 61.5469C54.8438 46.4265 42.5423 34.125 27.4219 34.125C12.3015 34.125 0 46.4265 0 61.5469V64.5938L8.53125 101.156L0 137.719V151.43C0 153.954 2.04628 156 4.57031 156H50.2734C52.7975 156 54.8438 153.954 54.8438 151.43V137.719L46.9219 101.156L54.8438 64.5938V61.5469Z" fill="#05ABE8"/>
<path d="M54.8438 61.5469C54.8438 46.4265 42.5423 34.125 27.4219 34.125V156H50.2734C52.7975 156 54.8438 153.954 54.8438 151.43V137.719L46.9219 101.156L54.8438 64.5938V61.5469Z" fill="#029CD5"/>
<path d="M0 64.5938H54.8438V137.719H0V64.5938Z" fill="white"/>
<path d="M27.4219 64.5938H54.8438V137.719H27.4219V64.5938Z" fill="#EAF9FF"/>
<path d="M35.0391 96.5859H19.8047C17.2807 96.5859 15.2344 94.5397 15.2344 92.0156C15.2344 89.4916 17.2807 87.4453 19.8047 87.4453H35.0391C37.5631 87.4453 39.6094 89.4916 39.6094 92.0156C39.6094 94.5397 37.5631 96.5859 35.0391 96.5859Z" fill="#0079A5"/>
<path d="M35.0391 114.867H19.8047C17.2807 114.867 15.2344 112.821 15.2344 110.297C15.2344 107.773 17.2807 105.727 19.8047 105.727H35.0391C37.5631 105.727 39.6094 107.773 39.6094 110.297C39.6094 112.821 37.5631 114.867 35.0391 114.867Z" fill="#0079A5"/>
<path d="M39.6094 92.0156C39.6094 89.4916 37.5631 87.4453 35.0391 87.4453H27.4219V96.5859H35.0391C37.5631 96.5859 39.6094 94.5397 39.6094 92.0156Z" fill="#004F6C"/>
<path d="M35.0391 105.727H27.4219V114.867H35.0391C37.5631 114.867 39.6094 112.821 39.6094 110.297C39.6094 107.773 37.5631 105.727 35.0391 105.727Z" fill="#004F6C"/>
<path d="M155.971 126.55L152.924 99.1282C152.667 96.8138 150.711 95.0625 148.382 95.0625H140.765V131.625H151.429C154.153 131.625 156.272 129.257 155.971 126.55Z" fill="#029CD5"/>
</svg>
