<svg width="156" height="156" viewBox="0 0 156 156" fill="none" xmlns="http://www.w3.org/2000/svg">
<g clip-path="url(#clip0)">
<path d="M87.6019 156C66.8618 156 49.9886 139.127 49.9886 118.387V72.6313C49.9886 70.1073 52.0348 68.061 54.5589 68.061C57.0829 68.061 59.1292 70.1073 59.1292 72.6313V118.387C59.1292 134.087 71.902 146.859 87.6016 146.859C103.302 146.859 116.074 134.087 116.074 118.387V108.765C116.074 106.241 118.121 104.195 120.645 104.195C123.169 104.195 125.215 106.241 125.215 108.765V118.387C125.215 139.127 108.342 156 87.6019 156Z" fill="#CFDFE6"/>
<path d="M85.3079 77.9999C85.3079 97.4847 101.161 113.335 120.646 113.335L127.278 77.9999L120.646 42.6653C101.161 42.6653 85.3079 58.5151 85.3079 77.9999Z" fill="#DCF6FF"/>
<path d="M120.646 42.6653V113.335C140.13 113.335 155.98 97.4847 155.98 77.9999C155.98 58.5151 140.13 42.6653 120.646 42.6653V42.6653Z" fill="#E6F0F2"/>
<path d="M24.3186 90.4921H24.2806V72.6313C24.2806 70.1073 22.2343 68.061 19.7102 68.061C17.1862 68.061 15.1399 70.1073 15.1399 72.6313V90.4921H15.1018C12.5778 90.4921 10.5315 92.5384 10.5315 95.0624C10.5315 97.5865 12.5778 99.6328 15.1018 99.6328H15.1399V114.07C15.1399 116.594 17.1862 118.64 19.7102 118.64C22.2343 118.64 24.2806 116.594 24.2806 114.07V99.6328H24.3186C26.8427 99.6328 28.8889 97.5865 28.8889 95.0624C28.8889 92.5384 26.8427 90.4921 24.3186 90.4921Z" fill="#CFDFE6"/>
<path d="M19.7102 109.5C9.06263 109.5 0.400055 118.162 0.400055 128.81V136.69C0.400055 147.337 9.06263 156 19.7102 156C30.3578 156 39.0204 147.337 39.0204 136.69V128.81C39.0204 118.162 30.3578 109.5 19.7102 109.5Z" fill="#0D8EBC"/>
<path d="M37.049 0L42.778 38.5186L37.049 77.0372H13.7313C6.17197 77.0372 0.0203247 70.8886 0.0203247 63.3262V13.7109C0.0203247 6.15164 6.17197 0 13.7313 0H37.049Z" fill="#05ABE8"/>
<path d="M74.0772 13.7109V63.3262C74.0772 70.8886 67.9286 77.0372 60.3662 77.0372H37.0485V0H60.3662C67.9286 0 74.0772 6.15164 74.0772 13.7109Z" fill="#0396CC"/>
<path d="M37.0485 37.7356L39.6292 48.0645L37.0485 57.8145C36.7682 57.8663 36.4818 57.8937 36.1954 57.8937C35.9272 57.8937 35.6561 57.8724 35.3849 57.8236C32.466 57.2935 31.7744 54.7493 31.36 53.232C31.1345 52.4063 30.8451 51.2668 30.4733 49.7464C29.8701 47.2662 29.0626 43.8202 28.0754 39.5089C27.1218 35.3377 26.1772 31.1391 25.5404 28.2842H22.4997C19.9769 28.2842 17.9294 26.2367 17.9294 23.7139C17.9294 21.188 19.9769 19.1436 22.4997 19.1436H29.2028C31.3447 19.1436 33.2003 20.6335 33.6665 22.7236C34.675 27.2818 35.909 32.7692 37.0485 37.7356V37.7356Z" fill="white"/>
<path d="M54.3212 41.3704C52.292 42.8756 49.431 42.449 47.9258 40.4228L47.0209 39.2011C40.5463 55.0357 40.2995 55.4135 40.0436 55.8096C39.3519 56.876 38.2581 57.5828 37.0485 57.8144V37.7355C37.1338 38.1011 37.2161 38.4607 37.2983 38.8202C38.7974 35.167 40.3665 31.3279 41.6279 28.2353C42.2495 26.7058 43.6511 25.6303 45.2872 25.4261C46.9234 25.2189 48.5474 25.9106 49.5315 27.236L55.2688 34.9781C56.774 37.0073 56.3474 39.8683 54.3212 41.3704V41.3704Z" fill="#F1F0F0"/>
<path d="M120.646 61.5835L122.931 70.8908L120.646 82.5704C118.12 82.5704 116.075 80.5229 116.075 78.0001V66.1538C116.075 63.631 118.12 61.5835 120.646 61.5835Z" fill="#05ABE8"/>
<path d="M125.216 66.1538V78.0001C125.216 80.5229 123.168 82.5704 120.646 82.5704V61.5835C123.168 61.5835 125.216 63.631 125.216 66.1538Z" fill="#05ABE8"/>
</g>
<defs>
<clipPath id="clip0">
<rect width="156" height="156" fill="white"/>
</clipPath>
</defs>
</svg>
