<svg width="156" height="156" viewBox="0 0 156 156" fill="none" xmlns="http://www.w3.org/2000/svg">
<path d="M121.488 107.445C122.982 107.44 124.444 107.879 125.689 108.706C126.934 109.532 127.906 110.71 128.481 112.089C129.056 113.468 129.209 114.987 128.92 116.453C128.632 117.919 127.915 119.267 126.86 120.325C125.805 121.384 124.46 122.105 122.994 122.399C121.529 122.692 120.01 122.544 118.629 121.973C117.248 121.402 116.067 120.435 115.236 119.192C114.406 117.95 113.962 116.49 113.962 114.995C113.959 112.996 114.751 111.078 116.162 109.662C117.573 108.246 119.489 107.449 121.488 107.445Z" fill="#4A5160"/>
<path d="M34.512 107.445C36.0063 107.44 37.4684 107.879 38.7132 108.706C39.958 109.532 40.9296 110.71 41.5047 112.089C42.0799 113.468 42.2329 114.987 41.9444 116.453C41.6558 117.919 40.9387 119.267 39.8837 120.325C38.8288 121.384 37.4835 122.105 36.0183 122.399C34.553 122.692 33.0337 122.544 31.6527 121.973C30.2716 121.402 29.091 120.435 28.2603 119.192C27.4296 117.95 26.9862 116.49 26.9862 114.995C26.9833 112.996 27.7745 111.078 29.1858 109.662C30.5971 108.246 32.5129 107.449 34.512 107.445V107.445Z" fill="#4A5160"/>
<path d="M125.263 99.9375H30.7369C30.1335 99.9429 29.5372 100.068 28.9822 100.304C28.4273 100.541 27.9246 100.886 27.5032 101.317C27.0818 101.749 26.75 102.26 26.5269 102.821C26.3038 103.381 26.1937 103.981 26.2031 104.584V107.25H129.797V104.584C129.806 103.981 129.696 103.381 129.473 102.821C129.25 102.26 128.918 101.749 128.497 101.317C128.075 100.886 127.573 100.541 127.018 100.304C126.463 100.068 125.866 99.9429 125.263 99.9375Z" fill="#8FE1FF"/>
<path d="M63.9844 35.0391H92.0156V42.3516H63.9844V35.0391Z" fill="#C0EEFF"/>
<path d="M41.1267 37.3944V44.6186C41.1282 45.6131 40.7527 46.5712 40.076 47.3C39.3992 48.0287 38.4715 48.474 37.4796 48.546H15.5695C15.5441 48.5455 15.5187 48.5465 15.4934 48.549C14.4963 48.483 13.5617 48.04 12.8793 47.3101C12.1968 46.5801 11.8177 45.6178 11.8188 44.6186V37.3944C11.818 36.8779 11.919 36.3662 12.1159 35.8887C12.3128 35.4111 12.6019 34.9771 12.9666 34.6112C13.3313 34.2454 13.7645 33.955 14.2414 33.7566C14.7183 33.5582 15.2297 33.4556 15.7462 33.4548H37.1993C37.7158 33.4556 38.2272 33.5582 38.7041 33.7566C39.181 33.955 39.6142 34.2454 39.9789 34.6112C40.3436 34.9771 40.6327 35.4111 40.8296 35.8887C41.0266 36.3662 41.1275 36.8779 41.1267 37.3944V37.3944Z" fill="#0580AD"/>
<path d="M149.51 64.5939H6.48985C6.31886 64.5912 6.14904 64.6226 5.99028 64.6862C5.83151 64.7497 5.68697 64.8442 5.56506 64.9641C5.44314 65.0841 5.34629 65.227 5.28013 65.3847C5.21398 65.5424 5.17983 65.7117 5.17969 65.8827V72.3086C5.17415 73.8822 5.78952 75.3945 6.8922 76.5171C7.99488 77.6397 9.49586 78.2822 11.0693 78.3048H144.931C146.504 78.2822 148.005 77.6397 149.108 76.5171C150.21 75.3945 150.826 73.8822 150.82 72.3086V65.8827C150.82 65.7117 150.786 65.5424 150.72 65.3847C150.654 65.227 150.557 65.0841 150.435 64.9641C150.313 64.8442 150.168 64.7497 150.01 64.6862C149.851 64.6226 149.681 64.5912 149.51 64.5939V64.5939Z" fill="#035A7A"/>
<path d="M141.197 56.6064C140.208 54.2013 138.529 52.1428 136.371 50.6905C134.214 49.2381 131.675 48.4569 129.075 48.4453H15.5695C15.5452 48.4453 15.4854 48.4956 15.4611 48.4986C14.4228 48.5287 13.437 48.9616 12.7122 49.7057C11.9875 50.4498 11.5808 51.4468 11.5781 52.4855V64.5938H144.422V64.4109L141.197 56.6064Z" fill="#05ABE8"/>
<path d="M116.391 99.9375H116.3L116.391 99.968V99.9375Z" fill="#B8C9DD"/>
<path d="M41.4375 78.3049H41.5213L41.4375 78.2744V78.3049Z" fill="#B8C9DD"/>
<path d="M56.6719 78.3047H41.4375L101.156 99.9375H116.391L56.6719 78.3047Z" fill="#B8C9DD"/>
<path d="M121.488 112.287C122.024 112.285 122.548 112.443 122.994 112.739C123.44 113.036 123.788 113.458 123.994 113.952C124.201 114.447 124.255 114.991 124.152 115.517C124.048 116.042 123.791 116.525 123.413 116.905C123.035 117.284 122.553 117.543 122.028 117.648C121.502 117.753 120.958 117.7 120.463 117.496C119.967 117.292 119.544 116.945 119.246 116.5C118.948 116.055 118.789 115.531 118.789 114.995C118.787 114.278 119.071 113.59 119.577 113.082C120.084 112.574 120.771 112.288 121.488 112.287Z" fill="#6D7486"/>
<path d="M34.512 112.287C35.0476 112.285 35.5717 112.443 36.0179 112.739C36.464 113.036 36.8122 113.458 37.0183 113.952C37.2244 114.447 37.2792 114.991 37.1757 115.517C37.0723 116.042 36.8152 116.525 36.437 116.905C36.0589 117.284 35.5767 117.543 35.0515 117.648C34.5262 117.753 33.9816 117.7 33.4864 117.496C32.9913 117.292 32.5679 116.945 32.2699 116.5C31.972 116.055 31.8127 115.531 31.8124 114.995C31.8114 114.278 32.0952 113.59 32.6014 113.082C33.1076 112.574 33.7948 112.288 34.512 112.287V112.287Z" fill="#6D7486"/>
<path d="M99.0283 78.3047L39.6094 99.9375H54.9291L114.605 78.3047H99.0283Z" fill="#C0EEFF"/>
<path d="M15.4934 48.549C15.5187 48.5465 15.5441 48.5455 15.5695 48.546H24.6069C23.6151 48.4735 22.6876 48.0282 22.0109 47.2995C21.3342 46.5709 20.9585 45.613 20.9594 44.6186V37.3944C20.9586 36.8779 21.0596 36.3662 21.2565 35.8887C21.4535 35.4111 21.7425 34.9771 22.1072 34.6112C22.4719 34.2454 22.9051 33.955 23.382 33.7566C23.859 33.5582 24.3703 33.4556 24.8869 33.4548H15.7462C15.2297 33.4556 14.7183 33.5582 14.2414 33.7566C13.7645 33.955 13.3313 34.2454 12.9666 34.6112C12.6019 34.9771 12.3128 35.4111 12.1159 35.8887C11.919 36.3662 11.818 36.8779 11.8188 37.3944V44.6186C11.8177 45.6178 12.1968 46.5801 12.8793 47.3101C13.5617 48.04 14.4963 48.483 15.4934 48.549V48.549Z" fill="#05ABE8"/>
<path d="M14.3203 72.3086V65.8827C14.3205 65.7117 14.3546 65.5424 14.4208 65.3847C14.4869 65.227 14.5838 65.0841 14.7057 64.9641C14.8276 64.8442 14.9721 64.7497 15.1309 64.6862C15.2897 64.6226 15.4595 64.5912 15.6305 64.5939H6.48985C6.31886 64.5912 6.14904 64.6226 5.99028 64.6862C5.83151 64.7497 5.68697 64.8442 5.56506 64.9641C5.44314 65.0841 5.34629 65.227 5.28013 65.3847C5.21398 65.5424 5.17983 65.7117 5.17969 65.8827V72.3086C5.17415 73.8822 5.78952 75.3945 6.8922 76.5171C7.99488 77.6397 9.49586 78.2822 11.0693 78.3048H20.2099C18.6365 78.2822 17.1355 77.6397 16.0328 76.5171C14.9301 75.3945 14.3148 73.8822 14.3203 72.3086V72.3086Z" fill="#02435C"/>
<path d="M24.6017 48.4986C24.6261 48.4956 24.6858 48.4453 24.7102 48.4453H15.5695C15.5452 48.4453 15.4854 48.4956 15.4611 48.4986C14.4228 48.5287 13.437 48.9616 12.7122 49.7057C11.9875 50.4498 11.5808 51.4468 11.5781 52.4855V64.5938H20.7188V52.4855C20.7214 51.4468 21.1281 50.4498 21.8529 49.7057C22.5776 48.9616 23.5634 48.5287 24.6017 48.4986V48.4986Z" fill="#0596CB"/>
<path d="M39.8775 99.9375H30.7369C30.1335 99.9429 29.5372 100.068 28.9822 100.304C28.4273 100.541 27.9246 100.886 27.5032 101.317C27.0818 101.749 26.75 102.26 26.5269 102.821C26.3038 103.381 26.1937 103.981 26.2031 104.584V107.25H35.3438V104.584C35.3344 103.981 35.4444 103.381 35.6675 102.821C35.8907 102.26 36.2225 101.749 36.6438 101.317C37.0652 100.886 37.5679 100.541 38.1228 100.304C38.6778 100.068 39.2741 99.9429 39.8775 99.9375V99.9375Z" fill="#D7F4FF"/>
<path d="M34.5123 110.46C33.615 110.458 32.7373 110.723 31.9904 111.22C31.2435 111.717 30.661 112.425 30.3164 113.254C29.9719 114.082 29.8808 114.994 30.0549 115.874C30.2289 116.755 30.6601 117.564 31.294 118.199C31.9279 118.834 32.7359 119.266 33.6159 119.442C34.4958 119.618 35.408 119.528 36.2372 119.186C37.0664 118.843 37.7751 118.261 38.2738 117.515C38.7725 116.769 39.0387 115.892 39.0387 114.995C39.0384 113.794 38.5616 112.642 37.7131 111.792C36.8645 110.941 35.7134 110.463 34.5123 110.46V110.46ZM34.5123 115.874C34.3381 115.875 34.1674 115.825 34.0218 115.73C33.8761 115.634 33.7622 115.498 33.6944 115.337C33.6265 115.177 33.6079 115 33.6409 114.829C33.6738 114.658 33.7568 114.5 33.8793 114.377C34.0019 114.253 34.1584 114.168 34.3291 114.134C34.4998 114.099 34.6769 114.116 34.838 114.182C34.9991 114.249 35.1368 114.361 35.2337 114.506C35.3307 114.651 35.3824 114.821 35.3824 114.995C35.3831 115.227 35.2919 115.449 35.1287 115.614C34.9656 115.778 34.7439 115.871 34.5123 115.873V115.874Z" fill="#284268"/>
<path d="M121.488 110.46C120.59 110.458 119.713 110.723 118.966 111.22C118.219 111.718 117.637 112.425 117.292 113.254C116.948 114.082 116.857 114.994 117.031 115.875C117.205 116.755 117.636 117.564 118.27 118.199C118.904 118.834 119.712 119.267 120.592 119.442C121.472 119.618 122.384 119.528 123.213 119.185C124.042 118.842 124.751 118.261 125.25 117.515C125.748 116.769 126.014 115.892 126.014 114.995C126.014 113.794 125.538 112.642 124.689 111.791C123.84 110.941 122.689 110.462 121.488 110.46V110.46ZM121.488 115.874C121.314 115.875 121.143 115.825 120.997 115.73C120.852 115.634 120.738 115.497 120.67 115.337C120.602 115.177 120.584 115 120.617 114.829C120.65 114.658 120.733 114.5 120.855 114.377C120.978 114.253 121.134 114.168 121.305 114.134C121.476 114.099 121.653 114.116 121.814 114.182C121.975 114.249 122.113 114.361 122.21 114.506C122.306 114.651 122.358 114.821 122.358 114.995C122.359 115.227 122.268 115.449 122.104 115.614C121.941 115.778 121.719 115.871 121.488 115.873V115.874Z" fill="#284268"/>
<path d="M19.302 70.0781C19.302 70.563 19.4946 71.028 19.8374 71.3708C20.1802 71.7136 20.6452 71.9062 21.1301 71.9062H51.4965C51.9813 71.9062 52.4463 71.7136 52.7891 71.3708C53.132 71.028 53.3246 70.563 53.3246 70.0781C53.3246 69.5933 53.132 69.1283 52.7891 68.7854C52.4463 68.4426 51.9813 68.25 51.4965 68.25H21.1301C20.6452 68.25 20.1802 68.4426 19.8374 68.7854C19.4946 69.1283 19.302 69.5933 19.302 70.0781V70.0781Z" fill="#284268"/>
<path d="M14.8867 68.25H13.2539C12.7691 68.25 12.3041 68.4426 11.9612 68.7854C11.6184 69.1283 11.4258 69.5933 11.4258 70.0781C11.4258 70.563 11.6184 71.028 11.9612 71.3708C12.3041 71.7136 12.7691 71.9062 13.2539 71.9062H14.8861C15.371 71.9062 15.836 71.7136 16.1788 71.3708C16.5216 71.028 16.7142 70.563 16.7142 70.0781C16.7142 69.5933 16.5216 69.1283 16.1788 68.7854C15.836 68.4426 15.371 68.25 14.8861 68.25H14.8867Z" fill="#284268"/>
<path d="M149.531 62.7657H145.685L142.86 55.9103C141.744 53.1682 139.836 50.8203 137.381 49.1654C134.926 47.5106 132.034 46.6236 129.074 46.6173H110.297V43.8389C110.291 42.9144 110.103 42.0002 109.743 41.1488C109.383 40.2974 108.858 39.5256 108.198 38.8777C107.539 38.2298 106.758 37.7187 105.9 37.3737C105.042 37.0287 104.125 36.8566 103.201 36.8673H93.8438V35.0255C93.846 34.7872 93.8008 34.5508 93.7108 34.3301C93.6209 34.1094 93.4879 33.9089 93.3198 33.74C93.1516 33.5712 92.9515 33.4375 92.7312 33.3467C92.5108 33.2559 92.2746 33.2098 92.0363 33.2111H63.9637C63.7254 33.2098 63.4892 33.2559 63.2688 33.3467C63.0485 33.4375 62.8484 33.5712 62.6802 33.74C62.512 33.9089 62.3791 34.1094 62.2892 34.3301C62.1992 34.5508 62.154 34.7872 62.1562 35.0255V36.8673H52.7993C51.8749 36.8566 50.9575 37.0287 50.0998 37.3737C49.2422 37.7187 48.4612 38.2298 47.8017 38.8777C47.1423 39.5256 46.6174 40.2974 46.2572 41.1488C45.8971 42.0002 45.7088 42.9144 45.7031 43.8389V46.6173H42.556C42.825 45.9852 42.9628 45.305 42.9609 44.618V37.3969C42.9594 36.6434 42.809 35.8976 42.5185 35.2024C42.2279 34.5072 41.8029 33.8763 41.2678 33.3458C40.7328 32.8153 40.0982 32.3957 39.4005 32.1112C38.7028 31.8266 37.9558 31.6827 37.2023 31.6876H15.7466C14.9967 31.6838 14.2535 31.8289 13.5601 32.1146C12.8668 32.4002 12.2371 32.8208 11.7076 33.3517C11.1781 33.8827 10.7593 34.5136 10.4755 35.2077C10.1918 35.9019 10.0487 36.6455 10.0547 37.3953V44.6164C10.0323 46.0248 10.5329 47.3915 11.4599 48.4521C10.3858 49.5216 9.77213 50.9685 9.75 52.4841V62.7657H6.46882C5.6421 62.7658 4.84926 63.0943 4.26468 63.6789C3.68009 64.2634 3.35164 65.0563 3.35156 65.883V72.3073C3.35156 76.5739 6.81434 80.1329 11.0708 80.1329H41.3156L64.9972 88.7666L39.3696 98.1095H30.7369C29.8938 98.1159 29.0602 98.2886 28.2839 98.6176C27.5076 98.9466 26.8038 99.4255 26.2129 100.027C25.6219 100.628 25.1554 101.34 24.84 102.122C24.5247 102.904 24.3666 103.741 24.375 104.584V107.195C24.3655 107.434 24.4033 107.672 24.4863 107.896C24.5693 108.121 24.6958 108.326 24.8585 108.501C25.0213 108.676 25.217 108.817 25.4345 108.916C25.652 109.015 25.8869 109.07 26.1257 109.078H27.2616C26.1438 110.45 25.4379 112.11 25.2257 113.866C25.0135 115.623 25.3039 117.403 26.063 119.002C26.8221 120.6 28.0189 121.95 29.5144 122.895C31.0099 123.84 32.7429 124.342 34.5121 124.342C36.2813 124.342 38.0143 123.84 39.5098 122.895C41.0053 121.95 42.2021 120.6 42.9612 119.002C43.7203 117.403 44.0107 115.623 43.7985 113.866C43.5864 112.11 42.8804 110.45 41.7626 109.078H114.237C113.12 110.45 112.414 112.11 112.201 113.866C111.989 115.623 112.28 117.403 113.039 119.002C113.798 120.6 114.995 121.95 116.49 122.895C117.986 123.84 119.719 124.342 121.488 124.342C123.257 124.342 124.99 123.84 126.486 122.895C127.981 121.95 129.178 120.6 129.937 119.002C130.696 117.403 130.986 115.623 130.774 113.866C130.562 112.11 129.856 110.45 128.738 109.078H129.874C130.113 109.07 130.348 109.015 130.566 108.916C130.783 108.817 130.979 108.676 131.141 108.501C131.304 108.326 131.431 108.121 131.514 107.896C131.597 107.672 131.634 107.434 131.625 107.195V104.584C131.633 103.741 131.475 102.904 131.16 102.122C130.845 101.34 130.378 100.628 129.787 100.027C129.196 99.4255 128.492 98.9466 127.716 98.6176C126.94 98.2886 126.106 98.1159 125.263 98.1095H116.631L91.0028 88.7666L114.684 80.1329H144.929C149.186 80.1329 152.648 76.5739 152.648 72.3073V65.883C152.648 65.0563 152.32 64.2634 151.735 63.6789C151.151 63.0943 150.358 62.7658 149.531 62.7657V62.7657ZM110.297 50.2736H129.074C131.31 50.281 133.493 50.9534 135.346 52.2052C137.199 53.4569 138.638 55.2315 139.48 57.3033L141.726 62.7657H110.297V50.2736ZM97.5 40.5236H103.201C103.645 40.5124 104.087 40.5895 104.501 40.7506C104.916 40.9117 105.294 41.1535 105.614 41.4619C105.934 41.7704 106.189 42.1393 106.366 42.5474C106.542 42.9554 106.635 43.3944 106.641 43.8389V46.6173H97.5V40.5236ZM97.5 50.2736H106.641V62.7657H97.5V50.2736ZM65.8125 36.8673H90.1875V40.5236H65.8125V36.8673ZM62.1562 42.6753C62.1562 43.5656 63.0398 44.1798 63.9637 44.1798H92.0363C92.9605 44.1798 93.8438 43.5656 93.8438 42.6753V46.6173H62.1562V42.6753ZM62.1562 50.2736H93.8438V62.7657H62.1562V50.2736ZM49.3594 43.8389C49.3646 43.3944 49.458 42.9554 49.6343 42.5474C49.8105 42.1393 50.0661 41.7704 50.3861 41.4619C50.7062 41.1535 51.0843 40.9117 51.4986 40.7506C51.9128 40.5895 52.355 40.5124 52.7993 40.5236H58.5V46.6173H49.3594V43.8389ZM49.3594 50.2736H58.5V62.7657H49.3594V50.2736ZM13.7109 37.3953C13.7045 37.1255 13.7526 36.8571 13.8524 36.6064C13.9522 36.3556 14.1016 36.1276 14.2917 35.936C14.4818 35.7444 14.7087 35.5932 14.9587 35.4914C15.2087 35.3897 15.4767 35.3395 15.7466 35.3439H37.2023C37.4756 35.3384 37.7473 35.3874 38.0015 35.4879C38.2557 35.5884 38.4874 35.7385 38.683 35.9294C38.8787 36.1203 39.0344 36.3483 39.1411 36.5999C39.2479 36.8516 39.3034 37.122 39.3047 37.3953V44.6164C39.3205 45.1302 39.1321 45.6294 38.7805 46.0044C38.429 46.3795 37.9431 46.5999 37.4293 46.6173H15.5695C15.5564 46.6173 15.5753 46.6688 15.5622 46.6688C15.0522 46.6227 14.5783 46.3859 14.2351 46.0058C13.892 45.6256 13.7048 45.13 13.7109 44.618V37.3953ZM51.9903 80.1329H56.6463L72.6625 85.972L70.3347 86.8205L51.9903 80.1329ZM67.321 80.1329H88.6796L78 84.0262L67.321 80.1329ZM34.5123 120.717C33.3797 120.722 32.2712 120.39 31.3272 119.765C30.3832 119.139 29.6461 118.247 29.2094 117.202C28.7728 116.157 28.6561 115.006 28.8741 113.894C29.0922 112.783 29.6352 111.761 30.4344 110.959C31.2336 110.156 32.253 109.609 33.3635 109.386C34.474 109.164 35.6256 109.275 36.6725 109.708C37.7193 110.14 38.6143 110.873 39.244 111.815C39.8737 112.756 40.2099 113.863 40.2099 114.996C40.2112 116.51 39.6121 117.962 38.544 119.035C37.4759 120.107 36.026 120.712 34.5123 120.717V120.717ZM121.488 120.717C120.355 120.722 119.247 120.39 118.303 119.765C117.359 119.139 116.622 118.247 116.185 117.202C115.748 116.157 115.632 115.006 115.85 113.894C116.068 112.783 116.611 111.761 117.41 110.959C118.209 110.156 119.229 109.609 120.339 109.386C121.45 109.164 122.601 109.275 123.648 109.708C124.695 110.14 125.59 110.873 126.219 111.815C126.849 112.756 127.185 113.863 127.185 114.996C127.187 116.51 126.588 117.962 125.52 119.035C124.451 120.107 123.001 120.712 121.488 120.717V120.717ZM125.263 101.766C125.626 101.772 125.985 101.849 126.318 101.995C126.65 102.14 126.951 102.349 127.203 102.611C127.454 102.873 127.652 103.182 127.783 103.521C127.914 103.86 127.978 104.221 127.969 104.584V105.422H28.0312V104.584C28.0224 104.221 28.0855 103.86 28.2169 103.521C28.3484 103.182 28.5456 102.873 28.7971 102.611C29.0486 102.349 29.3495 102.14 29.6825 101.995C30.0154 101.849 30.3737 101.772 30.7369 101.766H125.263ZM65.3747 98.1095L78 93.5069L90.6253 98.1095H65.3747ZM105.956 98.1095H101.3L83.3375 91.5612L85.6653 90.7123L105.956 98.1095ZM54.7002 98.1095H50.0443L99.3534 80.1329H104.01L54.7002 98.1095ZM148.992 72.3073C148.997 73.3962 148.573 74.4432 147.813 75.223C147.054 76.0029 146.018 76.453 144.929 76.4767H11.0708C9.98223 76.453 8.94646 76.0029 8.18653 75.223C7.42661 74.4432 7.00332 73.3962 7.00781 72.3073V66.422H18.5859C19.0708 66.422 19.5358 66.2294 19.8786 65.8866C20.2215 65.5437 20.4141 65.0787 20.4141 64.5939C20.4141 64.109 20.2215 63.644 19.8786 63.3012C19.5358 62.9584 19.0708 62.7657 18.5859 62.7657H13.4062V52.4841C13.4237 51.925 13.6556 51.3941 14.0539 51.0014C14.4521 50.6087 14.9862 50.3843 15.5455 50.3747L45.7031 50.2736V62.7657H30.7734C30.2886 62.7657 29.8236 62.9584 29.4808 63.3012C29.1379 63.644 28.9453 64.109 28.9453 64.5939C28.9453 65.0787 29.1379 65.5437 29.4808 65.8866C29.8236 66.2294 30.2886 66.422 30.7734 66.422H148.992V72.3073Z" fill="#284268"/>
</svg>
