<svg width="156" height="156" viewBox="0 0 156 156" fill="none" xmlns="http://www.w3.org/2000/svg">
<g clip-path="url(#clip0)">
<path d="M33.7664 55.5842L31.9904 65.5896H118.545L116.77 55.5842H33.7664Z" fill="#05ABE8"/>
<path d="M125.267 103.457L123.491 93.4521H27.0447L25.269 103.457H125.267Z" fill="#05ABE8"/>
<path d="M32.8782 60.5867L31.9904 65.5893H118.545L117.658 60.5867H32.8782Z" fill="#43CCFF"/>
<path d="M26.1568 98.4541L25.269 103.457H125.267L124.379 98.4541H26.1568Z" fill="#43CCFF"/>
<path d="M118.842 21.6676C117.024 10.9127 107.788 3.10693 96.8803 3.10693V13.0568C96.8803 13.0754 96.8779 13.0934 96.8776 13.112H96.8803C102.888 13.112 107.976 17.4114 108.977 23.3354L125.949 124.038C128.227 122.906 130.794 122.267 133.511 122.267C134.296 122.267 135.067 122.324 135.823 122.427L118.842 21.6676Z" fill="#43CCFF"/>
<path d="M114.592 23.3353C113.815 18.7378 110.575 14.9661 106.354 13.5073C104.021 12.7008 102.493 10.454 102.494 7.9848L102.495 3.82124C100.697 3.3569 98.8157 3.10645 96.8803 3.10645V13.0563C96.8803 13.0749 96.8779 13.0929 96.8776 13.1115H96.8803C102.888 13.1115 107.976 17.4112 108.977 23.335L125.949 124.038C127.596 123.22 129.394 122.664 131.29 122.415L114.592 23.3353Z" fill="#05ABE8"/>
<path d="M52.9209 13.0568V3.10693C42.0134 3.10693 32.7771 10.913 30.959 21.6676L13.6973 124.085C13.8761 124.055 14.0592 124.038 14.2457 124.038H22.259C22.815 124.038 23.3327 124.177 23.7885 124.415L40.8239 23.3354C41.8254 17.4117 46.9128 13.1123 52.9206 13.1123H52.9233C52.9233 13.0934 52.9209 13.0754 52.9209 13.0568V13.0568Z" fill="#43CCFF"/>
<path d="M36.1905 21.6676C37.7088 12.686 44.4025 5.76503 52.9209 3.72575V3.10693C42.0134 3.10693 32.7771 10.913 30.959 21.6676L13.6973 124.085C13.8764 124.055 14.0592 124.038 14.2457 124.038H18.9367L36.1905 21.6676Z" fill="#05ABE8"/>
<path d="M94.1372 0H55.6637C53.9754 0 52.6071 1.36866 52.6071 3.05662V13.0568C52.6071 14.745 53.9757 16.1134 55.6637 16.1134H94.1372C95.8255 16.1134 97.1938 14.7447 97.1938 13.0568V3.05662C97.1941 1.36866 95.8255 0 94.1372 0V0Z" fill="#1A97C5"/>
<path d="M94.1372 8.05693H55.6637C53.9754 8.05693 52.6071 6.68827 52.6071 5.0003V13.0572C52.6071 14.7454 53.9757 16.1138 55.6637 16.1138H94.1372C95.8255 16.1138 97.1941 14.7451 97.1941 13.0572V5C97.1941 6.68827 95.8255 8.05693 94.1372 8.05693V8.05693Z" fill="#0B83AF"/>
<path d="M133.511 156C142.913 156 150.535 148.378 150.535 138.976C150.535 129.574 142.913 121.952 133.511 121.952C124.109 121.952 116.487 129.574 116.487 138.976C116.487 148.378 124.109 156 133.511 156Z" fill="#685E68"/>
<path d="M125.673 138.976C125.673 131.167 130.934 124.59 138.104 122.585C136.642 122.176 135.103 121.953 133.511 121.953C124.109 121.953 116.487 129.575 116.487 138.977C116.487 148.379 124.109 156 133.511 156C135.103 156 136.642 155.777 138.104 155.369C130.934 153.363 125.673 146.786 125.673 138.976V138.976Z" fill="#544E55"/>
<path d="M133.511 146.906C137.89 146.906 141.441 143.356 141.441 138.976C141.441 134.597 137.89 131.046 133.511 131.046C129.131 131.046 125.581 134.597 125.581 138.976C125.581 143.356 129.131 146.906 133.511 146.906Z" fill="#43CCFF"/>
<path d="M133.511 138.976C133.511 136.041 135.106 133.481 137.476 132.11C136.309 131.435 134.956 131.046 133.511 131.046C129.132 131.046 125.581 134.597 125.581 138.976C125.581 143.356 129.132 146.906 133.511 146.906C134.956 146.906 136.309 146.518 137.476 145.843C135.106 144.472 133.511 141.911 133.511 138.976Z" fill="#05ABE8"/>
<path d="M22.5558 140.2C22.8635 140.2 23.1599 140.247 23.4403 140.331L25.5356 127.6C25.8778 125.573 24.315 123.724 22.2593 123.724H14.246C12.6242 123.724 11.2394 124.895 10.9697 126.494L8.70984 140.201H22.5558V140.2Z" fill="#05ABE8"/>
<path d="M21.0753 123.724H14.2457C12.6239 123.724 11.239 124.895 10.9694 126.494L8.70953 140.201H15.5391L17.799 126.494C18.0686 124.895 19.4537 123.724 21.0753 123.724Z" fill="#43CCFF"/>
<path d="M25.6124 152.943V142.943C25.6124 141.255 24.2437 139.887 22.5557 139.887H8.52214C6.83387 139.887 5.46552 141.255 5.46552 142.943V152.943C5.46552 154.631 6.83417 156 8.52214 156H22.5557C24.244 156 25.6124 154.631 25.6124 152.943V152.943Z" fill="#035878"/>
<path d="M15.1954 152.943V142.943C15.1954 141.255 16.5641 139.887 18.252 139.887H8.52214C6.83387 139.887 5.46552 141.255 5.46552 142.943V152.943C5.46552 154.631 6.83387 156 8.52214 156H18.252C16.5641 156 15.1954 154.631 15.1954 152.943V152.943Z" fill="#036B91"/>
</g>
<defs>
<clipPath id="clip0">
<rect width="156" height="156" fill="white"/>
</clipPath>
</defs>
</svg>
