<svg width="32" height="28" viewBox="0 0 32 28" fill="none" xmlns="http://www.w3.org/2000/svg">
<path d="M30.8342 6.89267C30.6911 6.68589 30.5001 6.51688 30.2774 6.40012C30.0547 6.28335 29.807 6.22231 29.5555 6.22223H8.29578L6.50066 1.91334C6.26529 1.34591 5.86673 0.861144 5.3555 0.520512C4.84428 0.179881 4.24342 -0.00127717 3.62911 6.77793e-06H0V3.11112H3.62911L11.0087 20.8211C11.1269 21.1045 11.3263 21.3465 11.5818 21.5167C11.8373 21.687 12.1374 21.7778 12.4444 21.7778H24.8889C25.5375 21.7778 26.1178 21.3749 26.3464 20.7698L31.0131 8.32534C31.1013 8.08986 31.1311 7.83651 31.0999 7.58699C31.0688 7.33748 30.9776 7.09923 30.8342 6.89267ZM23.8109 18.6667H13.482L9.59311 9.33334H27.3109L23.8109 18.6667Z" fill="white"/>
<path d="M13.2222 27.9999C14.5109 27.9999 15.5556 26.9552 15.5556 25.6666C15.5556 24.3779 14.5109 23.3333 13.2222 23.3333C11.9336 23.3333 10.8889 24.3779 10.8889 25.6666C10.8889 26.9552 11.9336 27.9999 13.2222 27.9999Z" fill="white"/>
<path d="M24.1111 27.9999C25.3998 27.9999 26.4444 26.9552 26.4444 25.6666C26.4444 24.3779 25.3998 23.3333 24.1111 23.3333C22.8224 23.3333 21.7778 24.3779 21.7778 25.6666C21.7778 26.9552 22.8224 27.9999 24.1111 27.9999Z" fill="white"/>
</svg>
