<svg width="585" height="585" viewBox="0 0 585 585" fill="none" xmlns="http://www.w3.org/2000/svg">
<g filter="url(#filter0_i)">
<circle cx="292.5" cy="292.5" r="292.5" fill="white"/>
</g>
<path d="M293 482.42C388.545 482.42 466 434.962 466 376.42C466 317.878 388.545 270.42 293 270.42C197.455 270.42 120 317.878 120 376.42C120 434.962 197.455 482.42 293 482.42Z" fill="#F0F0F0"/>
<path d="M426.22 374.42V225.27C426.088 222.866 425.391 220.528 424.187 218.443C422.983 216.358 421.306 214.586 419.29 213.27L348.62 172.42C344.79 170.21 341.68 172 341.68 176.42V325.65C341.813 328.055 342.51 330.394 343.716 332.479C344.922 334.564 346.602 336.336 348.62 337.65L419.29 378.42C423.12 380.67 426.22 378.88 426.22 374.42Z" fill="#E0E0E0"/>
<path d="M423 376.34V227.15C422.871 224.746 422.176 222.406 420.971 220.321C419.767 218.235 418.088 216.464 416.07 215.15L345.4 174.34C341.57 172.13 338.46 173.92 338.46 178.34V327.53C338.593 329.935 339.29 332.274 340.496 334.359C341.702 336.444 343.382 338.216 345.4 339.53L416 380.34C419.87 382.55 423 380.76 423 376.34Z" fill="#F5F5F5"/>
<path d="M416 215.15L352.27 178.35C371.2 190.58 409.27 212.6 414.03 216.35C418.79 220.1 421.25 222.55 421.25 234.65C421.25 246.75 423 368.12 423 368.12V227.12C422.858 224.715 422.15 222.377 420.934 220.297C419.718 218.216 418.027 216.453 416 215.15Z" fill="#FAFAFA"/>
<path d="M378.26 200.48C378.51 200.649 378.717 200.875 378.863 201.139C379.009 201.403 379.09 201.698 379.1 202V350.71C379.1 351.28 378.73 351.52 378.26 351.26C378.013 351.089 377.809 350.862 377.665 350.598C377.521 350.334 377.44 350.041 377.43 349.74V201.03C377.43 200.42 377.8 200.22 378.26 200.48Z" fill="#E0E0E0"/>
<g style="mix-blend-mode:hard-light" opacity="0.7">
<path d="M371 324.56C371.001 324.087 370.961 323.616 370.88 323.15C370.88 323.04 370.81 322.69 370.79 322.62C369.903 318.664 367.483 315.222 364.06 313.05L351.92 306.05L351.81 306C350.501 305.162 348.99 304.691 347.437 304.638C345.883 304.585 344.344 304.951 342.98 305.697C341.617 306.444 340.48 307.544 339.688 308.882C338.896 310.219 338.479 311.746 338.48 313.3C338.483 313.773 338.526 314.245 338.61 314.71C338.634 314.888 338.668 315.065 338.71 315.24C339.589 319.191 341.998 322.633 345.41 324.81L357.56 331.81L357.66 331.86C358.969 332.701 360.481 333.174 362.036 333.228C363.591 333.283 365.132 332.917 366.497 332.17C367.862 331.423 369.001 330.322 369.793 328.983C370.586 327.644 371.002 326.116 371 324.56Z" fill="#FAFAFA"/>
</g>
<path d="M344.93 309.54C344.93 313.69 348.04 318.84 351.87 321.05L364.01 328.05C367.84 330.26 370.95 328.69 370.95 324.54C370.95 320.39 367.84 315.24 364.01 313.03L351.87 306.03C348 303.83 344.93 305.42 344.93 309.54Z" fill="#E0E0E0"/>
<path d="M346.74 304.64C344.506 304.73 342.394 305.681 340.845 307.293C339.296 308.906 338.431 311.054 338.43 313.29C338.433 313.763 338.476 314.235 338.56 314.7C338.584 314.878 338.618 315.055 338.66 315.23C339.433 318.619 341.312 321.655 344 323.86C340.65 319.22 338.76 316.26 339.57 311.66C339.905 309.898 340.772 308.28 342.053 307.025C343.335 305.77 344.971 304.937 346.74 304.64Z" fill="white"/>
<path d="M352.51 326.27C351.995 325.901 351.587 325.402 351.327 324.825C351.067 324.247 350.964 323.61 351.03 322.98C351.125 321.221 351.634 319.509 352.515 317.984C353.396 316.458 354.624 315.162 356.1 314.2C356.613 313.827 357.215 313.596 357.846 313.533C358.477 313.47 359.114 313.576 359.69 313.84L366.21 317.62C367.86 318.576 369.062 320.148 369.552 321.991C370.043 323.834 369.781 325.795 368.825 327.445C367.869 329.095 366.297 330.297 364.454 330.787C362.612 331.278 360.65 331.016 359 330.06L352.51 326.27Z" fill="#F5F5F5"/>
<path d="M343.52 321.07C341.91 320.096 340.746 318.53 340.278 316.708C339.81 314.885 340.075 312.952 341.016 311.323C341.957 309.693 343.499 308.498 345.311 307.992C347.124 307.487 349.062 307.712 350.71 308.62L359.71 313.84C359.134 313.576 358.497 313.47 357.866 313.533C357.235 313.596 356.633 313.827 356.12 314.2C354.644 315.162 353.416 316.458 352.535 317.983C351.654 319.509 351.145 321.221 351.05 322.98C350.984 323.61 351.087 324.247 351.347 324.824C351.607 325.402 352.015 325.901 352.53 326.27L343.52 321.07Z" fill="#05ABE8"/>
<path opacity="0.4" d="M345.14 310.53C344.777 311.16 344.678 311.909 344.866 312.612C345.053 313.314 345.511 313.914 346.14 314.28L357 320.58C357.916 319.068 358.428 317.347 358.49 315.58C358.49 315.4 358.49 315.24 358.49 315.08L348.91 309.52C348.597 309.336 348.25 309.216 347.89 309.168C347.53 309.119 347.165 309.142 346.814 309.236C346.463 309.33 346.134 309.493 345.847 309.715C345.56 309.937 345.319 310.214 345.14 310.53Z" fill="white"/>
<path d="M352.51 326.27C351.995 325.901 351.587 325.402 351.327 324.825C351.067 324.247 350.964 323.61 351.03 322.98C351.125 321.221 351.634 319.509 352.515 317.984C353.396 316.458 354.624 315.162 356.1 314.2C356.613 313.827 357.215 313.596 357.846 313.533C358.477 313.47 359.114 313.576 359.69 313.84L366.21 317.62C367.86 318.576 369.062 320.148 369.552 321.991C370.043 323.834 369.781 325.795 368.825 327.445C367.869 329.095 366.297 330.297 364.454 330.787C362.612 331.278 360.65 331.016 359 330.06L352.51 326.27Z" fill="#F5F5F5"/>
<path opacity="0.1" d="M356.1 314.2C354.624 315.162 353.396 316.458 352.515 317.984C351.634 319.509 351.125 321.221 351.03 322.98C350.964 323.61 351.067 324.247 351.327 324.824C351.587 325.402 351.995 325.901 352.51 326.27L352 325.97L351.61 325.75C351.093 325.382 350.684 324.884 350.424 324.306C350.164 323.728 350.062 323.09 350.13 322.46C350.225 320.701 350.734 318.989 351.615 317.464C352.496 315.938 353.724 314.642 355.2 313.68C355.713 313.307 356.315 313.076 356.946 313.013C357.577 312.95 358.214 313.056 358.79 313.32L359.69 313.84C359.114 313.576 358.477 313.47 357.846 313.533C357.215 313.596 356.613 313.827 356.1 314.2Z" fill="black"/>
<path d="M369.75 323.08C369.899 324.4 369.678 325.736 369.111 326.938C368.545 328.14 367.656 329.161 366.543 329.887C365.43 330.613 364.137 331.016 362.809 331.05C361.48 331.084 360.169 330.748 359.02 330.08L352.51 326.29C351.995 325.921 351.587 325.422 351.327 324.844C351.067 324.267 350.964 323.63 351.03 323C351.037 322.26 351.141 321.523 351.34 320.81L362.23 327.11C365.81 329.15 369.71 325.42 369.75 323.08Z" fill="#E0E0E0"/>
<path d="M367.27 323.35C367.09 323.662 366.85 323.936 366.564 324.155C366.278 324.375 365.951 324.536 365.603 324.628C365.254 324.721 364.891 324.745 364.534 324.697C364.176 324.649 363.832 324.531 363.52 324.35L352.52 317.98C353.376 316.433 354.611 315.128 356.11 314.19C356.252 314.106 356.399 314.029 356.55 313.96L366.28 319.59C366.91 319.958 367.368 320.56 367.553 321.265C367.739 321.97 367.637 322.72 367.27 323.35Z" fill="white"/>
<path opacity="0.1" d="M341.4 310.5C341.48 310.39 341.57 310.29 341.66 310.18L341.85 309.96C341.92 309.88 342 309.81 342.08 309.73L342.32 309.49L342.46 309.38C342.838 309.056 343.251 308.775 343.69 308.54L344.18 308.3C342.18 309.52 340.89 314.75 344.47 316.82C345.69 317.53 347.52 318.62 351.31 320.82C351.111 321.533 351.007 322.27 351 323.01C350.934 323.64 351.037 324.277 351.297 324.854C351.557 325.432 351.965 325.931 352.48 326.3L343.48 321.1C341.831 320.144 340.629 318.574 340.136 316.734C339.643 314.893 339.9 312.932 340.85 311.28C340.97 311.09 341.09 310.9 341.22 310.72L341.4 310.5Z" fill="black"/>
<g style="mix-blend-mode:hard-light" opacity="0.7">
<path d="M416.46 350.6C416.459 350.128 416.422 349.657 416.35 349.19C416.35 349.08 416.27 348.73 416.25 348.66C415.368 344.705 412.95 341.263 409.53 339.09L397.38 332.09L397.27 332.04C395.961 331.202 394.45 330.731 392.897 330.678C391.343 330.625 389.804 330.991 388.44 331.737C387.077 332.484 385.94 333.584 385.148 334.922C384.356 336.259 383.939 337.786 383.94 339.34C383.943 339.813 383.986 340.285 384.07 340.75C384.07 340.85 384.14 341.12 384.17 341.28C385.047 345.232 387.457 348.674 390.87 350.85L403.02 357.85H403.12C404.429 358.691 405.941 359.164 407.496 359.218C409.051 359.273 410.592 358.907 411.957 358.16C413.322 357.413 414.461 356.312 415.253 354.973C416.046 353.634 416.462 352.106 416.46 350.55V350.6Z" fill="#FAFAFA"/>
</g>
<path d="M390.45 335.58C390.45 339.73 393.55 344.89 397.38 347.1L409.53 354.1C413.35 356.31 416.46 354.74 416.46 350.59C416.46 346.44 413.35 341.29 409.53 339.08L397.38 332.08C393.55 329.87 390.45 331.42 390.45 335.58Z" fill="#E0E0E0"/>
<path d="M392.25 330.68C390.017 330.773 387.906 331.724 386.358 333.336C384.809 334.948 383.943 337.095 383.94 339.33C383.943 339.803 383.986 340.275 384.07 340.74C384.07 340.84 384.14 341.11 384.17 341.27C384.943 344.659 386.822 347.695 389.51 349.9C386.17 345.26 384.27 342.3 385.08 337.71C385.416 335.947 386.282 334.329 387.564 333.072C388.845 331.815 390.481 330.981 392.25 330.68Z" fill="white"/>
<path d="M398 352.31C397.486 351.943 397.078 351.446 396.818 350.869C396.558 350.293 396.455 349.659 396.52 349.03C396.615 347.27 397.124 345.556 398.005 344.029C398.885 342.502 400.114 341.204 401.59 340.24C402.103 339.867 402.705 339.636 403.336 339.573C403.967 339.51 404.604 339.616 405.18 339.88L411.7 343.66C412.517 344.132 413.233 344.76 413.807 345.509C414.381 346.258 414.802 347.112 415.045 348.024C415.289 348.935 415.351 349.886 415.227 350.821C415.104 351.756 414.797 352.658 414.325 353.475C413.853 354.292 413.225 355.008 412.476 355.582C411.727 356.156 410.873 356.576 409.961 356.82C409.05 357.064 408.099 357.126 407.164 357.002C406.229 356.879 405.327 356.572 404.51 356.1L398 352.31Z" fill="#F5F5F5"/>
<path d="M389 347.11C387.35 346.157 386.147 344.587 385.655 342.746C385.162 340.905 385.422 338.945 386.375 337.295C387.328 335.645 388.898 334.442 390.739 333.95C392.58 333.457 394.54 333.717 396.19 334.67L405.19 339.88C404.614 339.616 403.977 339.51 403.346 339.573C402.715 339.636 402.113 339.867 401.6 340.24C400.124 341.204 398.895 342.502 398.015 344.029C397.134 345.556 396.625 347.27 396.53 349.03C396.465 349.659 396.568 350.293 396.828 350.869C397.088 351.446 397.496 351.943 398.01 352.31L389 347.11Z" fill="#05ABE8"/>
<path opacity="0.4" d="M390.65 336.57C390.469 336.882 390.351 337.226 390.303 337.584C390.255 337.941 390.279 338.304 390.372 338.653C390.465 339.001 390.625 339.328 390.845 339.614C391.064 339.9 391.338 340.14 391.65 340.32L402.51 346.63C403.423 345.117 403.935 343.396 404 341.63C404 341.46 404 341.29 404 341.13L394.42 335.57C394.107 335.386 393.761 335.265 393.402 335.216C393.042 335.167 392.677 335.189 392.326 335.282C391.975 335.375 391.646 335.537 391.359 335.758C391.071 335.979 390.83 336.255 390.65 336.57Z" fill="white"/>
<path d="M398 352.31C397.486 351.943 397.078 351.446 396.818 350.869C396.558 350.293 396.455 349.659 396.52 349.03C396.615 347.27 397.124 345.556 398.005 344.029C398.885 342.502 400.114 341.204 401.59 340.24C402.103 339.867 402.705 339.636 403.336 339.573C403.967 339.51 404.604 339.616 405.18 339.88L411.7 343.66C412.517 344.132 413.233 344.76 413.807 345.509C414.381 346.258 414.802 347.112 415.045 348.024C415.289 348.935 415.351 349.886 415.227 350.821C415.104 351.756 414.797 352.658 414.325 353.475C413.853 354.292 413.225 355.008 412.476 355.582C411.727 356.156 410.873 356.576 409.961 356.82C409.05 357.064 408.099 357.126 407.164 357.002C406.229 356.879 405.327 356.572 404.51 356.1L398 352.31Z" fill="#F5F5F5"/>
<path opacity="0.1" d="M401.61 340.24C400.134 341.204 398.905 342.502 398.025 344.029C397.144 345.556 396.635 347.27 396.54 349.03C396.475 349.659 396.578 350.293 396.838 350.87C397.098 351.446 397.506 351.943 398.02 352.31L397.51 352.02L397.12 351.79C396.604 351.424 396.195 350.927 395.935 350.351C395.675 349.774 395.573 349.139 395.64 348.51C395.735 346.75 396.244 345.036 397.125 343.509C398.005 341.982 399.234 340.684 400.71 339.72C401.223 339.347 401.825 339.116 402.456 339.053C403.087 338.99 403.724 339.096 404.3 339.36L405.2 339.88C404.624 339.616 403.987 339.51 403.356 339.573C402.725 339.636 402.123 339.867 401.61 340.24Z" fill="black"/>
<path d="M415.26 349.12C415.409 350.441 415.188 351.776 414.621 352.978C414.055 354.18 413.166 355.201 412.053 355.927C410.94 356.653 409.647 357.056 408.319 357.09C406.99 357.124 405.679 356.788 404.53 356.12L398 352.31C397.486 351.943 397.078 351.446 396.818 350.87C396.558 350.293 396.455 349.659 396.52 349.03C396.527 348.286 396.631 347.547 396.83 346.83C400.64 349.02 405.29 351.72 407.72 353.13C411.32 355.2 415.22 351.47 415.26 349.12Z" fill="#E0E0E0"/>
<path d="M412.78 349.42C412.6 349.732 412.36 350.006 412.074 350.225C411.788 350.445 411.461 350.606 411.113 350.698C410.764 350.791 410.401 350.815 410.044 350.767C409.686 350.719 409.342 350.601 409.03 350.42L398.03 344.05C398.886 342.503 400.121 341.198 401.62 340.26C401.77 340.17 401.92 340.1 402.06 340.03L411.79 345.66C412.418 346.029 412.874 346.632 413.06 347.336C413.245 348.04 413.144 348.789 412.78 349.42Z" fill="white"/>
<path opacity="0.1" d="M386.91 336.55C386.991 336.439 387.078 336.332 387.17 336.23C387.228 336.152 387.291 336.079 387.36 336.01L387.59 335.77C387.669 335.688 387.752 335.611 387.84 335.54C387.887 335.493 387.941 335.452 388 335.42C388.378 335.093 388.791 334.808 389.23 334.57C389.38 334.49 389.54 334.41 389.71 334.34C387.71 335.55 386.42 340.79 390 342.85C391.22 343.56 393.06 344.65 396.84 346.85C396.641 347.567 396.537 348.306 396.53 349.05C396.465 349.679 396.568 350.313 396.828 350.89C397.088 351.466 397.496 351.963 398.01 352.33L389.01 347.13C387.361 346.175 386.159 344.604 385.668 342.762C385.176 340.921 385.436 338.96 386.39 337.31C386.501 337.118 386.621 336.931 386.75 336.75L386.91 336.55Z" fill="black"/>
<g style="mix-blend-mode:hard-light" opacity="0.7">
<path d="M371 287.02C371.001 286.544 370.961 286.069 370.88 285.6C370.88 285.5 370.81 285.14 370.79 285.08C370.353 283.119 369.533 281.264 368.378 279.62C367.224 277.977 365.756 276.576 364.06 275.5L351.92 268.5H351.81C350.501 267.662 348.99 267.191 347.437 267.138C345.883 267.085 344.344 267.451 342.98 268.197C341.617 268.944 340.48 270.044 339.688 271.382C338.896 272.719 338.479 274.246 338.48 275.8C338.483 276.273 338.526 276.745 338.61 277.21C338.632 277.389 338.666 277.566 338.71 277.74C339.588 281.694 341.997 285.139 345.41 287.32L357.56 294.32H357.66C358.969 295.161 360.481 295.634 362.036 295.688C363.591 295.743 365.132 295.377 366.497 294.63C367.862 293.883 369.001 292.782 369.793 291.443C370.586 290.104 371.002 288.576 371 287.02Z" fill="#FAFAFA"/>
</g>
<path d="M344.93 272C344.93 276.14 348.04 281.3 351.87 283.51L364.01 290.51C367.84 292.72 370.95 291.15 370.95 287.01C370.95 282.87 367.84 277.71 364.01 275.49L351.87 268.49C348 266.28 344.93 267.85 344.93 272Z" fill="#E0E0E0"/>
<path d="M346.74 267.09C344.507 267.183 342.396 268.134 340.848 269.746C339.299 271.358 338.433 273.505 338.43 275.74C338.433 276.213 338.476 276.685 338.56 277.15C338.582 277.329 338.616 277.506 338.66 277.68C339.433 281.069 341.312 284.105 344 286.31C340.65 281.67 338.76 278.71 339.57 274.12C339.906 272.357 340.772 270.739 342.054 269.482C343.336 268.226 344.971 267.391 346.74 267.09Z" fill="white"/>
<path d="M352.51 288.72C351.986 288.355 351.57 287.857 351.304 287.276C351.039 286.696 350.934 286.055 351 285.42C351.095 283.66 351.604 281.946 352.485 280.419C353.365 278.892 354.594 277.594 356.07 276.63C356.583 276.257 357.186 276.028 357.817 275.967C358.449 275.905 359.085 276.013 359.66 276.28L366.18 280.05C366.999 280.522 367.717 281.15 368.293 281.899C368.869 282.647 369.292 283.502 369.537 284.415C369.783 285.327 369.846 286.279 369.724 287.216C369.602 288.153 369.296 289.056 368.825 289.875C368.354 290.694 367.725 291.412 366.977 291.988C366.228 292.564 365.373 292.987 364.46 293.232C363.548 293.478 362.596 293.542 361.659 293.419C360.722 293.297 359.819 292.992 359 292.52L352.51 288.72Z" fill="#F5F5F5"/>
<path d="M343.52 283.52C342.703 283.048 341.987 282.42 341.413 281.671C340.839 280.922 340.419 280.068 340.175 279.156C339.931 278.245 339.869 277.294 339.993 276.359C340.116 275.424 340.423 274.522 340.895 273.705C341.367 272.888 341.995 272.172 342.744 271.598C343.493 271.024 344.347 270.604 345.259 270.36C346.17 270.116 347.121 270.054 348.056 270.178C348.991 270.301 349.893 270.608 350.71 271.08L359.71 276.3C359.135 276.033 358.499 275.925 357.867 275.987C357.236 276.048 356.633 276.277 356.12 276.65C354.637 277.606 353.401 278.899 352.511 280.423C351.621 281.946 351.104 283.659 351 285.42C350.934 286.049 351.036 286.684 351.297 287.26C351.557 287.836 351.965 288.333 352.48 288.7L343.52 283.52Z" fill="#05ABE8"/>
<path opacity="0.4" d="M345.14 272.98C344.776 273.612 344.677 274.362 344.865 275.066C345.052 275.771 345.511 276.372 346.14 276.74L357 283.04C357.914 281.527 358.427 279.806 358.49 278.04C358.49 277.87 358.49 277.71 358.49 277.55L348.91 271.99C348.598 271.805 348.253 271.684 347.893 271.634C347.534 271.584 347.169 271.606 346.818 271.698C346.468 271.79 346.139 271.951 345.851 272.171C345.563 272.391 345.321 272.666 345.14 272.98Z" fill="white"/>
<path d="M352.51 288.72C351.986 288.355 351.57 287.857 351.304 287.276C351.039 286.696 350.934 286.055 351 285.42C351.095 283.66 351.604 281.946 352.485 280.419C353.365 278.892 354.594 277.594 356.07 276.63C356.583 276.257 357.186 276.028 357.817 275.967C358.449 275.905 359.085 276.013 359.66 276.28L366.18 280.05C366.999 280.522 367.717 281.15 368.293 281.899C368.869 282.647 369.292 283.502 369.537 284.415C369.783 285.327 369.846 286.279 369.724 287.216C369.602 288.153 369.296 289.056 368.825 289.875C368.354 290.694 367.725 291.412 366.977 291.988C366.228 292.564 365.373 292.987 364.46 293.232C363.548 293.478 362.596 293.542 361.659 293.419C360.722 293.297 359.819 292.992 359 292.52L352.51 288.72Z" fill="#F5F5F5"/>
<path opacity="0.1" d="M356.1 276.65C354.621 277.609 353.388 278.902 352.502 280.426C351.616 281.949 351.102 283.66 351 285.42C350.934 286.049 351.037 286.684 351.297 287.26C351.557 287.836 351.965 288.333 352.48 288.7L352 288.42L351.61 288.19C351.093 287.825 350.684 287.328 350.424 286.751C350.163 286.175 350.062 285.539 350.13 284.91C350.225 283.15 350.734 281.436 351.615 279.909C352.495 278.382 353.724 277.084 355.2 276.12C355.713 275.747 356.316 275.518 356.947 275.457C357.579 275.395 358.215 275.503 358.79 275.77L359.69 276.29C359.114 276.025 358.477 275.918 357.846 275.982C357.215 276.045 356.612 276.276 356.1 276.65Z" fill="black"/>
<path d="M369.75 285.53C369.899 286.851 369.678 288.186 369.111 289.388C368.545 290.59 367.656 291.611 366.543 292.337C365.43 293.063 364.137 293.466 362.809 293.5C361.48 293.534 360.169 293.198 359.02 292.53L352.51 288.73C351.985 288.364 351.567 287.864 351.302 287.282C351.036 286.7 350.932 286.057 351 285.42C351.008 284.676 351.112 283.937 351.31 283.22L362.2 289.52C365.81 291.61 369.71 287.89 369.75 285.53Z" fill="#E0E0E0"/>
<path d="M367.27 285.81C366.904 286.439 366.304 286.897 365.602 287.084C364.899 287.272 364.15 287.173 363.52 286.81L352.52 280.44C353.373 278.888 354.608 277.579 356.11 276.64L356.55 276.41L366.28 282.04C366.91 282.409 367.369 283.014 367.554 283.72C367.74 284.427 367.638 285.179 367.27 285.81Z" fill="white"/>
<path opacity="0.1" d="M341.4 272.96C341.481 272.849 341.568 272.742 341.66 272.64C341.718 272.562 341.781 272.489 341.85 272.42C341.922 272.338 341.998 272.262 342.08 272.19L342.32 271.95L342.46 271.84C342.838 271.513 343.25 271.228 343.69 270.99L344.18 270.76C342.18 271.97 340.89 277.21 344.47 279.28C345.69 279.98 347.52 281.07 351.31 283.28C351.117 283.977 351.013 284.696 351 285.42C350.934 286.049 351.036 286.684 351.297 287.26C351.557 287.836 351.965 288.333 352.48 288.7L343.48 283.5C341.832 282.546 340.63 280.978 340.137 279.139C339.644 277.3 339.9 275.34 340.85 273.69C340.97 273.49 341.09 273.31 341.22 273.13C341.275 273.068 341.335 273.011 341.4 272.96Z" fill="black"/>
<g style="mix-blend-mode:hard-light" opacity="0.7">
<path d="M416.46 313.06C416.459 312.585 416.422 312.11 416.35 311.64C416.35 311.54 416.27 311.19 416.25 311.12C415.814 309.161 414.996 307.308 413.843 305.666C412.69 304.024 411.224 302.625 409.53 301.55L397.38 294.55L397.27 294.5C395.96 293.665 394.449 293.197 392.895 293.146C391.342 293.095 389.804 293.462 388.441 294.209C387.079 294.957 385.942 296.056 385.15 297.393C384.358 298.731 383.94 300.256 383.94 301.81C383.943 302.28 383.986 302.748 384.07 303.21C384.07 303.32 384.14 303.59 384.17 303.74C385.046 307.695 387.456 311.14 390.87 313.32L403.02 320.32L403.12 320.37C404.429 321.211 405.941 321.684 407.496 321.738C409.051 321.793 410.592 321.427 411.957 320.68C413.322 319.933 414.461 318.833 415.253 317.493C416.046 316.154 416.462 314.626 416.46 313.07V313.06Z" fill="#FAFAFA"/>
</g>
<path d="M390.45 298.04C390.45 302.19 393.55 307.34 397.38 309.55L409.53 316.55C413.35 318.76 416.46 317.19 416.46 313.05C416.46 308.91 413.35 303.75 409.53 301.54L397.38 294.54C393.55 292.32 390.45 293.89 390.45 298.04Z" fill="#E0E0E0"/>
<path d="M392.25 293.14C390.016 293.23 387.904 294.181 386.355 295.793C384.806 297.406 383.941 299.554 383.94 301.79C383.943 302.26 383.986 302.728 384.07 303.19C384.07 303.3 384.14 303.57 384.17 303.72C384.941 307.111 386.82 310.147 389.51 312.35C386.17 307.71 384.27 304.76 385.08 300.16C385.415 298.398 386.281 296.78 387.563 295.525C388.845 294.27 390.481 293.437 392.25 293.14Z" fill="white"/>
<path d="M398 314.77C397.485 314.401 397.077 313.902 396.817 313.324C396.557 312.747 396.454 312.11 396.52 311.48C396.616 309.72 397.125 308.007 398.006 306.48C398.886 304.953 400.114 303.654 401.59 302.69C402.103 302.317 402.706 302.088 403.337 302.027C403.969 301.965 404.605 302.073 405.18 302.34L411.7 306.11C412.538 306.571 413.275 307.195 413.869 307.945C414.463 308.695 414.901 309.556 415.158 310.478C415.415 311.399 415.485 312.362 415.365 313.311C415.245 314.26 414.937 315.176 414.458 316.004C413.98 316.832 413.341 317.557 412.579 318.135C411.817 318.714 410.948 319.134 410.021 319.372C409.095 319.61 408.13 319.661 407.184 319.521C406.237 319.382 405.328 319.055 404.51 318.56L398 314.77Z" fill="#F5F5F5"/>
<path d="M389 309.56C387.35 308.607 386.147 307.037 385.655 305.196C385.162 303.356 385.422 301.395 386.375 299.745C387.328 298.095 388.898 296.892 390.739 296.4C392.58 295.908 394.54 296.167 396.19 297.12L405.19 302.34C404.615 302.073 403.979 301.965 403.347 302.027C402.716 302.088 402.113 302.317 401.6 302.69C400.124 303.654 398.896 304.953 398.016 306.48C397.135 308.007 396.626 309.72 396.53 311.48C396.464 312.11 396.567 312.747 396.827 313.325C397.087 313.902 397.495 314.401 398.01 314.77L389 309.56Z" fill="#05ABE8"/>
<path opacity="0.4" d="M390.65 299.02C390.286 299.652 390.187 300.402 390.375 301.106C390.562 301.811 391.021 302.412 391.65 302.78L402.51 309.08C403.424 307.567 403.937 305.846 404 304.08C404 303.91 404 303.75 404 303.59L394.42 298.03C394.108 297.847 393.762 297.727 393.403 297.677C393.045 297.628 392.68 297.65 392.329 297.742C391.979 297.834 391.65 297.994 391.362 298.213C391.074 298.433 390.832 298.707 390.65 299.02Z" fill="white"/>
<path d="M398 314.77C397.485 314.401 397.077 313.902 396.817 313.324C396.557 312.747 396.454 312.11 396.52 311.48C396.616 309.72 397.125 308.007 398.006 306.48C398.886 304.953 400.114 303.654 401.59 302.69C402.103 302.317 402.706 302.088 403.337 302.027C403.969 301.965 404.605 302.073 405.18 302.34L411.7 306.11C412.538 306.571 413.275 307.195 413.869 307.945C414.463 308.695 414.901 309.556 415.158 310.478C415.415 311.399 415.485 312.362 415.365 313.311C415.245 314.26 414.937 315.176 414.458 316.004C413.98 316.832 413.341 317.557 412.579 318.135C411.817 318.714 410.948 319.134 410.021 319.372C409.095 319.61 408.13 319.661 407.184 319.521C406.237 319.382 405.328 319.055 404.51 318.56L398 314.77Z" fill="#F5F5F5"/>
<path opacity="0.1" d="M401.61 302.69C400.134 303.654 398.906 304.953 398.026 306.48C397.145 308.007 396.636 309.72 396.54 311.48C396.474 312.11 396.577 312.747 396.837 313.324C397.097 313.902 397.505 314.401 398.02 314.77L397.51 314.47L397.12 314.24C396.603 313.875 396.192 313.379 395.932 312.802C395.672 312.225 395.571 311.589 395.64 310.96C395.736 309.2 396.245 307.487 397.126 305.96C398.006 304.433 399.234 303.134 400.71 302.17C401.223 301.797 401.826 301.568 402.457 301.507C403.089 301.445 403.725 301.553 404.3 301.82L405.2 302.34C404.625 302.073 403.989 301.965 403.357 302.027C402.726 302.088 402.123 302.317 401.61 302.69Z" fill="black"/>
<path d="M415.26 311.58C415.429 313.09 415.11 314.614 414.35 315.93C413.396 317.581 411.826 318.785 409.985 319.278C408.143 319.771 406.181 319.513 404.53 318.56L398 314.77C397.485 314.401 397.077 313.902 396.817 313.324C396.557 312.747 396.454 312.11 396.52 311.48C396.528 310.736 396.632 309.997 396.83 309.28L407.72 315.58C411.32 317.65 415.22 313.93 415.26 311.58Z" fill="#E0E0E0"/>
<path d="M412.78 311.85C412.6 312.162 412.36 312.436 412.074 312.655C411.788 312.875 411.461 313.036 411.113 313.128C410.764 313.221 410.401 313.245 410.044 313.197C409.686 313.149 409.342 313.031 409.03 312.85L398.03 306.48C398.885 304.93 400.121 303.622 401.62 302.68L402.06 302.46L411.79 308.09C412.103 308.271 412.377 308.512 412.596 308.799C412.815 309.087 412.975 309.415 413.068 309.764C413.16 310.114 413.182 310.478 413.132 310.836C413.083 311.194 412.963 311.539 412.78 311.85Z" fill="white"/>
<path opacity="0.1" d="M386.91 299C386.991 298.889 387.078 298.782 387.17 298.68C387.23 298.61 387.29 298.53 387.36 298.46L387.59 298.23L387.84 297.99L387.97 297.88C388.348 297.556 388.761 297.275 389.2 297.04C389.354 296.948 389.514 296.868 389.68 296.8C387.68 298.01 386.39 303.25 389.97 305.32C391.19 306.03 393.03 307.12 396.81 309.32C396.612 310.037 396.508 310.776 396.5 311.52C396.434 312.15 396.537 312.787 396.797 313.364C397.057 313.942 397.465 314.441 397.98 314.81L388.98 309.6C388.163 309.129 387.447 308.501 386.873 307.753C386.299 307.004 385.878 306.15 385.634 305.239C385.391 304.327 385.33 303.377 385.454 302.442C385.579 301.507 385.887 300.606 386.36 299.79C386.471 299.597 386.591 299.411 386.72 299.23L386.91 299Z" fill="black"/>
<g style="mix-blend-mode:hard-light" opacity="0.7">
<path d="M371 249.47C371.001 248.997 370.961 248.526 370.88 248.06C370.88 247.95 370.81 247.6 370.79 247.53C369.903 243.574 367.483 240.132 364.06 237.96L351.92 230.96L351.81 230.91C350.501 230.072 348.99 229.601 347.437 229.548C345.883 229.495 344.344 229.861 342.98 230.607C341.617 231.354 340.48 232.454 339.688 233.792C338.896 235.129 338.479 236.656 338.48 238.21C338.483 238.683 338.526 239.155 338.61 239.62C338.634 239.798 338.668 239.975 338.71 240.15C339.589 244.101 341.998 247.543 345.41 249.72L357.56 256.72H357.66C358.969 257.561 360.481 258.034 362.036 258.088C363.591 258.143 365.132 257.777 366.497 257.03C367.862 256.283 369.001 255.182 369.793 253.843C370.586 252.504 371.002 250.976 371 249.42V249.47Z" fill="#FAFAFA"/>
</g>
<path d="M344.93 234.42C344.93 238.57 348.04 243.72 351.87 245.93L364.01 252.93C367.84 255.14 370.95 253.57 370.95 249.42C370.95 245.27 367.84 240.12 364.01 237.91L351.87 230.91C348 228.74 344.93 230.31 344.93 234.42Z" fill="#E0E0E0"/>
<path d="M346.74 229.55C344.506 229.64 342.394 230.591 340.845 232.203C339.296 233.816 338.431 235.964 338.43 238.2C338.433 238.673 338.476 239.145 338.56 239.61C338.584 239.788 338.618 239.965 338.66 240.14C339.433 243.529 341.312 246.565 344 248.77C340.65 244.13 338.76 241.17 339.57 236.57C339.905 234.808 340.772 233.19 342.053 231.935C343.335 230.68 344.971 229.848 346.74 229.55Z" fill="white"/>
<path d="M352.51 251.18C351.995 250.811 351.587 250.312 351.327 249.734C351.067 249.157 350.964 248.52 351.03 247.89C351.125 246.131 351.634 244.419 352.515 242.893C353.396 241.368 354.624 240.072 356.1 239.11C356.613 238.737 357.215 238.506 357.846 238.443C358.477 238.38 359.114 238.486 359.69 238.75L366.21 242.53C367.027 243.003 367.742 243.633 368.316 244.383C368.889 245.133 369.31 245.989 369.552 246.901C369.795 247.813 369.856 248.764 369.731 249.7C369.606 250.636 369.298 251.538 368.825 252.355C368.352 253.172 367.722 253.887 366.972 254.461C366.222 255.034 365.366 255.455 364.454 255.697C363.542 255.94 362.591 256.001 361.655 255.876C360.719 255.751 359.817 255.443 359 254.97L352.51 251.18Z" fill="#F5F5F5"/>
<path d="M343.52 245.98C341.91 245.006 340.746 243.44 340.278 241.618C339.81 239.795 340.075 237.862 341.016 236.233C341.957 234.603 343.499 233.408 345.311 232.902C347.124 232.397 349.062 232.622 350.71 233.53L359.71 238.75C359.134 238.486 358.497 238.38 357.866 238.443C357.235 238.506 356.633 238.737 356.12 239.11C354.644 240.072 353.416 241.368 352.535 242.894C351.654 244.419 351.145 246.131 351.05 247.89C350.984 248.52 351.087 249.157 351.347 249.734C351.607 250.312 352.015 250.811 352.53 251.18L343.52 245.98Z" fill="#05ABE8"/>
<path opacity="0.4" d="M345.14 235.42C344.777 236.05 344.678 236.799 344.866 237.502C345.053 238.204 345.511 238.804 346.14 239.17L357 245.47C357.916 243.958 358.428 242.237 358.49 240.47C358.49 240.29 358.49 240.13 358.49 239.97L348.89 234.42C348.578 234.239 348.234 234.121 347.877 234.073C347.519 234.026 347.156 234.049 346.807 234.142C346.459 234.235 346.133 234.395 345.846 234.615C345.56 234.834 345.32 235.108 345.14 235.42Z" fill="white"/>
<path d="M352.51 251.18C351.995 250.811 351.587 250.312 351.327 249.734C351.067 249.157 350.964 248.52 351.03 247.89C351.125 246.131 351.634 244.419 352.515 242.893C353.396 241.368 354.624 240.072 356.1 239.11C356.613 238.737 357.215 238.506 357.846 238.443C358.477 238.38 359.114 238.486 359.69 238.75L366.21 242.53C367.027 243.003 367.742 243.633 368.316 244.383C368.889 245.133 369.31 245.989 369.552 246.901C369.795 247.813 369.856 248.764 369.731 249.7C369.606 250.636 369.298 251.538 368.825 252.355C368.352 253.172 367.722 253.887 366.972 254.461C366.222 255.034 365.366 255.455 364.454 255.697C363.542 255.94 362.591 256.001 361.655 255.876C360.719 255.751 359.817 255.443 359 254.97L352.51 251.18Z" fill="#F5F5F5"/>
<path opacity="0.1" d="M356.1 239.11C354.624 240.072 353.396 241.368 352.515 242.893C351.634 244.419 351.125 246.131 351.03 247.89C350.964 248.52 351.067 249.157 351.327 249.734C351.587 250.312 351.995 250.811 352.51 251.18L352 250.88L351.61 250.66C351.093 250.292 350.684 249.794 350.424 249.216C350.164 248.637 350.062 248 350.13 247.37C350.225 245.611 350.734 243.899 351.615 242.373C352.496 240.848 353.724 239.552 355.2 238.59C355.713 238.217 356.315 237.986 356.946 237.923C357.577 237.86 358.214 237.966 358.79 238.23L359.69 238.75C359.114 238.486 358.477 238.38 357.846 238.443C357.215 238.506 356.613 238.737 356.1 239.11Z" fill="black"/>
<path d="M369.75 247.99C369.899 249.311 369.678 250.646 369.111 251.848C368.545 253.05 367.656 254.071 366.543 254.797C365.43 255.523 364.137 255.926 362.809 255.96C361.48 255.994 360.169 255.658 359.02 254.99L352.51 251.2C351.995 250.831 351.587 250.332 351.327 249.754C351.067 249.177 350.964 248.54 351.03 247.91C351.037 247.17 351.141 246.433 351.34 245.72L362.23 252.02C365.81 254.06 369.71 250.34 369.75 247.99Z" fill="#E0E0E0"/>
<path d="M367.27 248.26C367.09 248.572 366.85 248.846 366.564 249.065C366.278 249.285 365.951 249.446 365.603 249.538C365.254 249.631 364.891 249.655 364.534 249.607C364.176 249.559 363.832 249.441 363.52 249.26L352.52 242.89C353.376 241.343 354.611 240.038 356.11 239.1C356.252 239.016 356.399 238.939 356.55 238.87L366.28 244.5C366.91 244.868 367.368 245.47 367.553 246.175C367.739 246.88 367.637 247.63 367.27 248.26Z" fill="white"/>
<path opacity="0.1" d="M341.4 235.42L341.66 235.1L341.85 234.88L342.08 234.65L342.32 234.41L342.46 234.3C342.841 233.98 343.253 233.698 343.69 233.46L344.18 233.22C342.18 234.44 340.89 239.67 344.47 241.74C345.69 242.45 347.52 243.54 351.31 245.74C351.111 246.453 351.007 247.19 351 247.93C350.934 248.56 351.037 249.197 351.297 249.774C351.557 250.352 351.965 250.851 352.48 251.22L343.48 246.02C341.831 245.064 340.629 243.494 340.136 241.654C339.643 239.813 339.9 237.852 340.85 236.2C340.97 236.01 341.09 235.82 341.22 235.64L341.4 235.42Z" fill="black"/>
<g style="mix-blend-mode:hard-light" opacity="0.7">
<path d="M416.46 275.51C416.459 275.038 416.422 274.567 416.35 274.1C416.35 273.99 416.27 273.64 416.25 273.57C415.368 269.615 412.95 266.173 409.53 264L397.38 257H397.27C395.961 256.162 394.45 255.691 392.897 255.638C391.343 255.585 389.804 255.951 388.44 256.697C387.077 257.444 385.94 258.544 385.148 259.882C384.356 261.219 383.939 262.746 383.94 264.3C383.943 264.773 383.986 265.245 384.07 265.71C384.07 265.81 384.14 266.08 384.17 266.24C385.047 270.192 387.457 273.634 390.87 275.81L403.02 282.81H403.12C404.429 283.651 405.941 284.124 407.496 284.178C409.051 284.233 410.592 283.867 411.957 283.12C413.322 282.373 414.461 281.272 415.253 279.933C416.046 278.594 416.462 277.066 416.46 275.51Z" fill="#FAFAFA"/>
</g>
<path d="M390.45 260.5C390.45 264.64 393.55 269.8 397.38 272.01L409.53 279.01C413.35 281.22 416.46 279.65 416.46 275.5C416.46 271.35 413.35 266.2 409.53 263.99L397.38 256.99C393.55 254.78 390.45 256.35 390.45 260.5Z" fill="#E0E0E0"/>
<path d="M392.25 255.59C390.017 255.683 387.906 256.634 386.358 258.246C384.809 259.858 383.943 262.005 383.94 264.24C383.943 264.713 383.986 265.185 384.07 265.65C384.07 265.75 384.14 266.02 384.17 266.18C384.943 269.569 386.822 272.605 389.51 274.81C386.17 270.17 384.27 267.21 385.08 262.62C385.416 260.857 386.282 259.239 387.564 257.982C388.845 256.726 390.481 255.891 392.25 255.59Z" fill="white"/>
<path d="M398 277.22C397.486 276.853 397.078 276.356 396.818 275.78C396.558 275.203 396.455 274.569 396.52 273.94C396.615 272.18 397.124 270.466 398.005 268.939C398.885 267.412 400.114 266.114 401.59 265.15C402.103 264.777 402.705 264.546 403.336 264.483C403.967 264.42 404.604 264.526 405.18 264.79L411.7 268.57C413.35 269.523 414.553 271.093 415.045 272.934C415.538 274.775 415.279 276.735 414.325 278.385C413.372 280.035 411.802 281.238 409.961 281.73C408.121 282.223 406.16 281.963 404.51 281.01L398 277.22Z" fill="#F5F5F5"/>
<path d="M389 272.02C387.35 271.067 386.147 269.497 385.655 267.656C385.162 265.816 385.422 263.855 386.375 262.205C387.328 260.555 388.898 259.352 390.739 258.86C392.58 258.368 394.54 258.627 396.19 259.58L405.19 264.79C404.614 264.526 403.977 264.42 403.346 264.483C402.715 264.546 402.113 264.777 401.6 265.15C400.124 266.114 398.895 267.412 398.015 268.939C397.134 270.466 396.625 272.18 396.53 273.94C396.464 274.568 396.565 275.202 396.824 275.778C397.082 276.354 397.488 276.851 398 277.22L389 272.02Z" fill="#05ABE8"/>
<path opacity="0.4" d="M390.65 261.48C390.286 262.112 390.187 262.862 390.375 263.566C390.562 264.271 391.021 264.872 391.65 265.24L402.51 271.54C403.423 270.027 403.935 268.306 404 266.54C404 266.37 404 266.2 404 266.04L394.42 260.48C394.107 260.296 393.761 260.175 393.402 260.126C393.042 260.076 392.677 260.099 392.326 260.192C391.975 260.285 391.646 260.447 391.359 260.668C391.071 260.889 390.83 261.165 390.65 261.48Z" fill="white"/>
<path d="M398 277.22C397.486 276.853 397.078 276.356 396.818 275.78C396.558 275.203 396.455 274.569 396.52 273.94C396.615 272.18 397.124 270.466 398.005 268.939C398.885 267.412 400.114 266.114 401.59 265.15C402.103 264.777 402.705 264.546 403.336 264.483C403.967 264.42 404.604 264.526 405.18 264.79L411.7 268.57C413.35 269.523 414.553 271.093 415.045 272.934C415.538 274.775 415.279 276.735 414.325 278.385C413.372 280.035 411.802 281.238 409.961 281.73C408.121 282.223 406.16 281.963 404.51 281.01L398 277.22Z" fill="#F5F5F5"/>
<path opacity="0.1" d="M401.61 265.15C400.134 266.114 398.905 267.412 398.025 268.939C397.144 270.466 396.635 272.18 396.54 273.94C396.473 274.567 396.573 275.2 396.829 275.776C397.086 276.352 397.489 276.85 398 277.22L397.49 276.93L397.1 276.7C396.584 276.334 396.175 275.837 395.915 275.261C395.655 274.684 395.553 274.049 395.62 273.42C395.715 271.66 396.224 269.946 397.105 268.419C397.985 266.892 399.214 265.594 400.69 264.63C401.203 264.257 401.805 264.026 402.436 263.963C403.067 263.9 403.704 264.006 404.28 264.27L405.18 264.79C404.606 264.53 403.974 264.426 403.347 264.489C402.72 264.552 402.12 264.78 401.61 265.15Z" fill="black"/>
<path d="M415.26 274.03C415.409 275.351 415.188 276.686 414.621 277.888C414.055 279.09 413.166 280.111 412.053 280.837C410.94 281.563 409.647 281.966 408.319 282C406.99 282.034 405.679 281.698 404.53 281.03L398 277.22C397.486 276.853 397.078 276.356 396.818 275.78C396.558 275.203 396.455 274.569 396.52 273.94C396.527 273.196 396.631 272.457 396.83 271.74C400.64 273.93 405.29 276.64 407.72 278.04C411.32 280.11 415.22 276.42 415.26 274.03Z" fill="#E0E0E0"/>
<path d="M412.78 274.31C412.6 274.622 412.36 274.896 412.074 275.115C411.788 275.335 411.461 275.496 411.113 275.588C410.764 275.681 410.401 275.705 410.044 275.657C409.686 275.609 409.342 275.491 409.03 275.31L398.03 268.94C398.886 267.393 400.121 266.088 401.62 265.15C401.77 265.06 401.92 264.99 402.06 264.92L411.79 270.55C412.418 270.919 412.874 271.522 413.06 272.226C413.245 272.93 413.144 273.679 412.78 274.31Z" fill="white"/>
<path opacity="0.1" d="M386.91 261.42C386.991 261.309 387.078 261.202 387.17 261.1C387.228 261.022 387.291 260.949 387.36 260.88L387.59 260.64C387.668 260.558 387.752 260.481 387.84 260.41C387.879 260.368 387.922 260.331 387.97 260.3C388.348 259.973 388.761 259.688 389.2 259.45C389.35 259.37 389.51 259.29 389.68 259.22C387.68 260.43 386.39 265.67 389.97 267.73C391.19 268.44 393.03 269.53 396.81 271.73C396.611 272.447 396.507 273.186 396.5 273.93C396.436 274.562 396.541 275.2 396.804 275.778C397.068 276.357 397.481 276.854 398 277.22L389 272.02C387.352 271.067 386.15 269.497 385.658 267.658C385.167 265.818 385.427 263.858 386.38 262.21C386.488 262.013 386.608 261.823 386.74 261.64L386.91 261.42Z" fill="black"/>
<g style="mix-blend-mode:hard-light" opacity="0.7">
<path d="M371 211.93C371.001 211.454 370.961 210.979 370.88 210.51C370.88 210.41 370.81 210.05 370.79 209.99C370.344 208.026 369.515 206.17 368.35 204.528C367.184 202.886 365.706 201.49 364 200.42L351.86 193.42H351.75C350.44 192.585 348.93 192.118 347.378 192.066C345.826 192.014 344.288 192.381 342.926 193.127C341.563 193.873 340.426 194.971 339.634 196.307C338.841 197.643 338.422 199.167 338.42 200.72C338.423 201.193 338.466 201.665 338.55 202.13C338.572 202.309 338.606 202.486 338.65 202.66C339.528 206.614 341.937 210.059 345.35 212.24L357.5 219.24L357.6 219.29C358.909 220.131 360.421 220.604 361.976 220.658C363.531 220.713 365.072 220.347 366.437 219.601C367.802 218.854 368.941 217.753 369.733 216.413C370.526 215.074 370.942 213.546 370.94 211.99L371 211.93Z" fill="#FAFAFA"/>
</g>
<path d="M344.93 196.91C344.93 201.06 348.04 206.21 351.87 208.42L364 215.42C367.83 217.63 370.94 216.06 370.94 211.92C370.94 207.78 367.83 202.62 364 200.41L351.86 193.41C348 191.19 344.93 192.76 344.93 196.91Z" fill="#E0E0E0"/>
<path d="M346.74 192C344.507 192.093 342.396 193.044 340.848 194.656C339.299 196.268 338.433 198.415 338.43 200.65C338.433 201.123 338.476 201.595 338.56 202.06C338.582 202.239 338.616 202.416 338.66 202.59C339.431 205.981 341.31 209.017 344 211.22C340.65 206.58 338.76 203.62 339.57 199.03C339.906 197.267 340.772 195.648 342.054 194.392C343.336 193.135 344.971 192.301 346.74 192Z" fill="white"/>
<path d="M352.51 213.63C351.995 213.263 351.587 212.766 351.327 212.19C351.067 211.614 350.964 210.979 351.03 210.35C351.125 208.59 351.634 206.876 352.515 205.349C353.395 203.822 354.624 202.524 356.1 201.56C356.613 201.187 357.216 200.958 357.847 200.897C358.479 200.835 359.115 200.943 359.69 201.21L366.21 204.98C367.042 205.446 367.773 206.072 368.36 206.823C368.948 207.573 369.38 208.433 369.633 209.353C369.885 210.272 369.951 211.232 369.829 212.178C369.706 213.123 369.397 214.035 368.919 214.86C368.441 215.684 367.804 216.406 367.044 216.982C366.285 217.558 365.419 217.978 364.496 218.216C363.573 218.454 362.611 218.507 361.668 218.37C360.724 218.233 359.818 217.91 359 217.42L352.51 213.63Z" fill="#F5F5F5"/>
<path d="M343.52 208.42C342.703 207.948 341.987 207.32 341.413 206.571C340.839 205.822 340.419 204.968 340.175 204.056C339.931 203.145 339.869 202.194 339.993 201.259C340.116 200.324 340.423 199.422 340.895 198.605C341.367 197.788 341.995 197.072 342.744 196.498C343.493 195.924 344.347 195.504 345.259 195.26C346.17 195.016 347.121 194.954 348.056 195.078C348.991 195.201 349.893 195.508 350.71 195.98L359.71 201.2C359.135 200.933 358.499 200.825 357.867 200.887C357.236 200.948 356.633 201.177 356.12 201.55C354.644 202.514 353.415 203.812 352.535 205.339C351.654 206.866 351.145 208.58 351.05 210.34C350.984 210.969 351.087 211.604 351.347 212.18C351.607 212.756 352.015 213.253 352.53 213.62L343.52 208.42Z" fill="#05ABE8"/>
<path opacity="0.4" d="M345.14 197.89C344.776 198.522 344.677 199.272 344.865 199.976C345.052 200.681 345.511 201.282 346.14 201.65L357 207.95C357.914 206.437 358.427 204.716 358.49 202.95C358.49 202.78 358.49 202.62 358.49 202.46L348.91 196.9C348.598 196.715 348.253 196.594 347.893 196.544C347.534 196.494 347.169 196.516 346.818 196.608C346.468 196.7 346.139 196.861 345.851 197.081C345.563 197.301 345.321 197.576 345.14 197.89Z" fill="white"/>
<path d="M352.51 213.63C351.995 213.263 351.587 212.766 351.327 212.19C351.067 211.614 350.964 210.979 351.03 210.35C351.125 208.59 351.634 206.876 352.515 205.349C353.395 203.822 354.624 202.524 356.1 201.56C356.613 201.187 357.216 200.958 357.847 200.897C358.479 200.835 359.115 200.943 359.69 201.21L366.21 204.98C367.042 205.446 367.773 206.072 368.36 206.823C368.948 207.573 369.38 208.433 369.633 209.353C369.885 210.272 369.951 211.232 369.829 212.178C369.706 213.123 369.397 214.035 368.919 214.86C368.441 215.684 367.804 216.406 367.044 216.982C366.285 217.558 365.419 217.978 364.496 218.216C363.573 218.454 362.611 218.507 361.668 218.37C360.724 218.233 359.818 217.91 359 217.42L352.51 213.63Z" fill="#F5F5F5"/>
<path opacity="0.1" d="M356.1 201.56C354.624 202.524 353.395 203.822 352.515 205.349C351.634 206.876 351.125 208.59 351.03 210.35C350.964 210.979 351.067 211.614 351.327 212.19C351.587 212.766 351.995 213.263 352.51 213.63L352 213.34L351.61 213.11C351.093 212.745 350.684 212.248 350.424 211.671C350.163 211.095 350.062 210.459 350.13 209.83C350.225 208.07 350.734 206.356 351.615 204.829C352.495 203.302 353.724 202.004 355.2 201.04C355.713 200.667 356.316 200.438 356.947 200.377C357.579 200.315 358.215 200.423 358.79 200.69L359.69 201.21C359.115 200.943 358.479 200.835 357.847 200.897C357.216 200.958 356.613 201.187 356.1 201.56Z" fill="black"/>
<path d="M369.75 210.42C369.919 211.93 369.6 213.454 368.84 214.77C368.368 215.591 367.74 216.31 366.99 216.888C366.24 217.465 365.383 217.889 364.469 218.135C363.556 218.381 362.602 218.445 361.664 218.322C360.725 218.199 359.82 217.893 359 217.42L352.49 213.62C351.975 213.253 351.567 212.756 351.307 212.18C351.046 211.604 350.944 210.969 351.01 210.34C351.018 209.596 351.122 208.857 351.32 208.14L362.21 214.44C365.81 216.52 369.71 212.8 369.75 210.42Z" fill="#E0E0E0"/>
<path d="M367.27 210.72C366.904 211.349 366.304 211.807 365.602 211.994C364.899 212.182 364.15 212.083 363.52 211.72L352.52 205.35C353.373 203.798 354.608 202.489 356.11 201.55L356.55 201.32L366.28 206.95C366.91 207.319 367.369 207.924 367.554 208.63C367.74 209.337 367.638 210.089 367.27 210.72Z" fill="white"/>
<path opacity="0.1" d="M341.4 197.87C341.481 197.759 341.568 197.652 341.66 197.55C341.718 197.472 341.781 197.399 341.85 197.33L342.08 197.1L342.32 196.86L342.46 196.75C342.838 196.423 343.25 196.138 343.69 195.9C343.848 195.81 344.012 195.73 344.18 195.66C342.18 196.87 340.89 202.11 344.47 204.18C345.69 204.88 347.52 205.98 351.31 208.18C351.112 208.897 351.008 209.636 351 210.38C350.934 211.009 351.036 211.644 351.297 212.22C351.557 212.796 351.965 213.293 352.48 213.66L343.48 208.46C341.832 207.506 340.63 205.938 340.137 204.099C339.644 202.26 339.9 200.3 340.85 198.65C340.97 198.45 341.09 198.27 341.22 198.09C341.272 198.01 341.332 197.937 341.4 197.87Z" fill="black"/>
<g style="mix-blend-mode:hard-light" opacity="0.7">
<path d="M416.46 237.97C416.459 237.495 416.422 237.02 416.35 236.55C416.35 236.45 416.27 236.1 416.25 236.03C415.814 234.071 414.996 232.218 413.843 230.576C412.69 228.934 411.224 227.535 409.53 226.46L397.38 219.46L397.27 219.41C395.96 218.575 394.449 218.107 392.895 218.056C391.342 218.005 389.804 218.372 388.441 219.119C387.079 219.867 385.942 220.966 385.15 222.303C384.358 223.641 383.94 225.166 383.94 226.72C383.943 227.19 383.986 227.658 384.07 228.12C384.07 228.23 384.14 228.5 384.17 228.65C385.046 232.605 387.456 236.05 390.87 238.23L403.02 245.23H403.12C404.429 246.071 405.941 246.544 407.496 246.598C409.051 246.653 410.592 246.287 411.957 245.54C413.322 244.794 414.461 243.693 415.253 242.353C416.046 241.014 416.462 239.486 416.46 237.93V237.97Z" fill="#FAFAFA"/>
</g>
<path d="M390.45 222.95C390.45 227.1 393.55 232.25 397.38 234.46L409.53 241.46C413.35 243.67 416.46 242.1 416.46 237.95C416.46 233.8 413.35 228.65 409.53 226.44L397.38 219.44C393.55 217.23 390.45 218.8 390.45 222.95Z" fill="#E0E0E0"/>
<path d="M392.25 218.05C390.016 218.14 387.904 219.091 386.355 220.703C384.806 222.316 383.941 224.464 383.94 226.7C383.943 227.17 383.986 227.638 384.07 228.1C384.07 228.21 384.14 228.48 384.17 228.63C384.941 232.021 386.82 235.057 389.51 237.26C386.17 232.62 384.27 229.67 385.08 225.07C385.415 223.308 386.281 221.69 387.563 220.435C388.845 219.18 390.481 218.348 392.25 218.05Z" fill="white"/>
<path d="M398 239.68C397.485 239.311 397.077 238.812 396.817 238.235C396.557 237.657 396.454 237.02 396.52 236.39C396.616 234.63 397.125 232.917 398.006 231.39C398.886 229.863 400.114 228.564 401.59 227.6C402.104 227.23 402.707 227.003 403.338 226.942C403.968 226.88 404.604 226.987 405.18 227.25L411.7 231.03C412.517 231.502 413.233 232.131 413.807 232.879C414.381 233.628 414.802 234.483 415.045 235.394C415.289 236.305 415.351 237.256 415.227 238.191C415.104 239.126 414.797 240.028 414.325 240.845C413.853 241.662 413.225 242.378 412.476 242.952C411.727 243.526 410.873 243.947 409.961 244.19C409.05 244.434 408.099 244.496 407.164 244.372C406.229 244.249 405.327 243.942 404.51 243.47L398 239.68Z" fill="#F5F5F5"/>
<path d="M389 234.47C387.35 233.517 386.147 231.947 385.655 230.106C385.162 228.266 385.422 226.305 386.375 224.655C387.328 223.005 388.898 221.802 390.739 221.31C392.58 220.818 394.54 221.077 396.19 222.03L405.19 227.25C404.614 226.987 403.978 226.88 403.348 226.942C402.717 227.003 402.114 227.23 401.6 227.6C400.124 228.564 398.896 229.863 398.016 231.39C397.135 232.917 396.626 234.63 396.53 236.39C396.464 237.02 396.567 237.657 396.827 238.235C397.087 238.812 397.495 239.311 398.01 239.68L389 234.47Z" fill="#05ABE8"/>
<path opacity="0.4" d="M390.65 223.93C390.286 224.562 390.187 225.312 390.375 226.016C390.562 226.721 391.021 227.322 391.65 227.69L402.51 233.99C403.424 232.477 403.937 230.756 404 228.99C404 228.82 404 228.66 404 228.5L394.42 222.94C394.108 222.757 393.762 222.637 393.403 222.587C393.045 222.538 392.68 222.56 392.329 222.652C391.979 222.744 391.65 222.904 391.362 223.123C391.074 223.343 390.832 223.617 390.65 223.93Z" fill="white"/>
<path d="M398 239.68C397.485 239.311 397.077 238.812 396.817 238.235C396.557 237.657 396.454 237.02 396.52 236.39C396.616 234.63 397.125 232.917 398.006 231.39C398.886 229.863 400.114 228.564 401.59 227.6C402.104 227.23 402.707 227.003 403.338 226.942C403.968 226.88 404.604 226.987 405.18 227.25L411.7 231.03C412.517 231.502 413.233 232.131 413.807 232.879C414.381 233.628 414.802 234.483 415.045 235.394C415.289 236.305 415.351 237.256 415.227 238.191C415.104 239.126 414.797 240.028 414.325 240.845C413.853 241.662 413.225 242.378 412.476 242.952C411.727 243.526 410.873 243.947 409.961 244.19C409.05 244.434 408.099 244.496 407.164 244.372C406.229 244.249 405.327 243.942 404.51 243.47L398 239.68Z" fill="#F5F5F5"/>
<path opacity="0.1" d="M401.61 227.6C400.134 228.564 398.906 229.863 398.026 231.39C397.145 232.917 396.636 234.63 396.54 236.39C396.474 237.02 396.577 237.657 396.837 238.234C397.097 238.812 397.505 239.311 398.02 239.68L397.51 239.38L397.12 239.16C396.603 238.792 396.194 238.294 395.934 237.716C395.674 237.138 395.572 236.5 395.64 235.87C395.736 234.11 396.245 232.397 397.126 230.87C398.006 229.343 399.234 228.044 400.71 227.08C401.223 226.707 401.826 226.478 402.457 226.417C403.089 226.355 403.725 226.463 404.3 226.73L405.2 227.25C404.624 226.986 403.988 226.88 403.358 226.941C402.727 227.003 402.124 227.23 401.61 227.6Z" fill="black"/>
<path d="M415.26 236.49C415.429 238 415.11 239.524 414.35 240.84C413.396 242.491 411.826 243.695 409.985 244.188C408.143 244.681 406.181 244.423 404.53 243.47L398 239.68C397.485 239.311 397.077 238.812 396.817 238.234C396.557 237.657 396.454 237.02 396.52 236.39C396.528 235.646 396.632 234.907 396.83 234.19L407.72 240.49C411.32 242.56 415.22 238.84 415.26 236.49Z" fill="#E0E0E0"/>
<path d="M412.78 236.76C412.6 237.072 412.36 237.346 412.074 237.565C411.788 237.785 411.461 237.946 411.113 238.038C410.764 238.131 410.401 238.155 410.044 238.107C409.686 238.059 409.342 237.941 409.03 237.76L398 231.42C398.855 229.87 400.091 228.562 401.59 227.62L402.03 227.4L411.76 233.03C412.387 233.392 412.845 233.987 413.036 234.685C413.227 235.384 413.135 236.129 412.78 236.76Z" fill="white"/>
<path opacity="0.1" d="M386.91 223.91C386.991 223.799 387.078 223.692 387.17 223.59C387.23 223.52 387.29 223.44 387.36 223.37L387.59 223.14L387.84 222.9L387.97 222.79C388.348 222.466 388.761 222.185 389.2 221.95C389.354 221.858 389.514 221.778 389.68 221.71C387.68 222.93 386.39 228.16 389.97 230.23C391.19 230.94 393.03 232.03 396.81 234.23C396.612 234.947 396.508 235.686 396.5 236.43C396.434 237.06 396.537 237.697 396.797 238.274C397.057 238.852 397.465 239.351 397.98 239.72L388.98 234.51C388.163 234.039 387.447 233.411 386.873 232.663C386.299 231.914 385.878 231.06 385.634 230.149C385.391 229.237 385.33 228.287 385.454 227.352C385.579 226.417 385.887 225.516 386.36 224.7C386.471 224.508 386.591 224.321 386.72 224.14L386.91 223.91Z" fill="black"/>
<path d="M308.05 181.72C305.158 180.062 302.15 178.615 299.05 177.39C296.184 176.284 293.717 174.343 291.968 171.818C290.219 169.293 289.268 166.301 289.24 163.23V145.95H232.82V163.23C232.799 166.308 231.851 169.309 230.1 171.84C228.348 174.372 225.874 176.316 223 177.42C219.9 178.645 216.892 180.092 214 181.75C201 189.25 194.53 199.08 194.53 208.9V339.2C194.53 349.02 201.02 358.85 214 366.35C240 381.35 282.07 381.35 308 366.35C321 358.85 327.48 349.03 327.48 339.2V208.87C327.53 199.04 321 189.22 308.05 181.72Z" fill="#05ABE8"/>
<path opacity="0.7" d="M308.05 181.72C305.158 180.062 302.15 178.615 299.05 177.39C296.184 176.284 293.717 174.343 291.968 171.818C290.219 169.293 289.268 166.301 289.24 163.23V145.95H232.82V163.23C232.799 166.308 231.851 169.309 230.1 171.84C228.348 174.372 225.874 176.316 223 177.42C219.9 178.645 216.892 180.092 214 181.75C201 189.25 194.53 199.08 194.53 208.9V339.2C194.53 349.02 201.02 358.85 214 366.35C240 381.35 282.07 381.35 308 366.35C321 358.85 327.48 349.03 327.48 339.2V208.87C327.53 199.04 321 189.22 308.05 181.72Z" fill="white"/>
<path d="M261.07 377.57C297.769 377.57 327.52 360.561 327.52 339.58C327.52 318.599 297.769 301.59 261.07 301.59C224.371 301.59 194.62 318.599 194.62 339.58C194.62 360.561 224.371 377.57 261.07 377.57Z" fill="#05ABE8"/>
<path opacity="0.5" d="M261.07 377.57C297.769 377.57 327.52 360.561 327.52 339.58C327.52 318.599 297.769 301.59 261.07 301.59C224.371 301.59 194.62 318.599 194.62 339.58C194.62 360.561 224.371 377.57 261.07 377.57Z" fill="white"/>
<path opacity="0.4" d="M294.63 164.12C282.4 157.06 265.12 154.66 249.44 156.95V145.95H232.82V163.22C232.803 166.3 231.856 169.304 230.104 171.837C228.352 174.371 225.876 176.317 223 177.42C219.904 178.654 216.897 180.101 214 181.75C213.89 181.75 213.8 181.88 213.68 181.93C200.9 189.41 194.53 199.15 194.53 208.93V339.16C194.53 349 201.02 358.81 214 366.31C232.68 377.1 259.7 380.08 283.06 375.36C229 379.07 216 356.15 216 339.57V212.88C216 207.03 216.88 202.2 221 198.13C223.002 199.962 225.206 201.559 227.57 202.89C246.12 213.59 276.17 213.59 294.7 202.89C313.23 192.19 313.18 174.84 294.63 164.12Z" fill="white"/>
<path opacity="0.4" d="M308.05 181.72C305.158 180.062 302.15 178.615 299.05 177.39C296.184 176.284 293.717 174.343 291.968 171.818C290.219 169.293 289.268 166.301 289.24 163.23V145.95H283.08V169.08C283.08 174.41 287.67 179.48 292.98 182.38C298.29 185.28 315.17 192.61 319.26 200.63C323.16 208.26 321.89 223.43 321.89 241.43V333.43C321.89 345.11 317.02 362.01 295.33 372.17C299.739 370.665 304.001 368.757 308.06 366.47C321.06 358.97 327.53 349.54 327.53 339.2V208.87C327.53 199.04 321 189.22 308.05 181.72Z" fill="white"/>
<path d="M308.55 170.2V175.12C308.55 182.12 303.94 189.18 294.63 194.57C276.1 205.26 246.06 205.26 227.48 194.57C223.39 192.337 219.838 189.239 217.07 185.49C214.87 182.51 213.66 178.914 213.61 175.21V170.1C213.595 169.028 213.719 167.959 213.98 166.92C215.13 160.98 219.65 155.22 227.48 150.7C227.704 150.559 227.938 150.436 228.18 150.33C246.79 140.01 276.33 140.15 294.63 150.7C302.46 155.22 307.03 160.98 308.18 166.88C308.442 167.967 308.566 169.082 308.55 170.2Z" fill="#F0F0F0"/>
<path d="M265 197.48V180.01C265 173.1 266.75 182.45 254.63 182.45C244.12 182.45 234.77 158.21 228.23 150.33C227.988 150.435 227.754 150.559 227.53 150.7C219.7 155.22 215.18 160.98 214.03 166.92C213.769 167.959 213.645 169.028 213.66 170.1V175.21C213.71 178.914 214.92 182.51 217.12 185.49C219.888 189.238 223.44 192.337 227.53 194.57C246.11 205.26 276.15 205.26 294.68 194.57C281.54 199.73 265 204.07 265 197.48Z" fill="#E0E0E0"/>
<path d="M261.07 197.5C287.287 197.5 308.54 185.228 308.54 170.09C308.54 154.952 287.287 142.68 261.07 142.68C234.853 142.68 213.6 154.952 213.6 170.09C213.6 185.228 234.853 197.5 261.07 197.5Z" fill="#455A64"/>
<path d="M308.55 153.74V163.56C308.565 164.678 308.441 165.793 308.18 166.88C307.03 172.78 302.46 178.54 294.63 183.05C286.33 187.85 275.74 190.47 264.95 190.94C251.54 191.58 237.76 188.94 227.48 183.01C223.408 180.786 219.859 177.718 217.07 174.01C215.546 171.897 214.498 169.478 214 166.92C213.739 165.867 213.615 164.785 213.63 163.7V153.65C213.63 146.65 218.24 139.65 227.5 134.25C228.33 133.79 229.16 133.33 230.04 132.91C248.7 123.56 276.95 124.02 294.65 134.25C303.94 139.64 308.59 146.69 308.55 153.74Z" fill="#F0F0F0"/>
<path d="M261.07 180.82C287.287 180.82 308.54 168.548 308.54 153.41C308.54 138.272 287.287 126 261.07 126C234.853 126 213.6 138.272 213.6 153.41C213.6 168.548 234.853 180.82 261.07 180.82Z" fill="#FAFAFA"/>
<path d="M217.07 173.98C219.859 177.688 223.408 180.756 227.48 182.98C237.76 188.92 251.54 191.55 264.95 190.91C265.08 187.46 267.01 184.82 254.58 182.42C244.26 180.42 229 176.14 221.88 164.86C215.34 154.49 219.1 140.86 230.02 132.86C229.14 133.28 228.31 133.74 227.48 134.2C218.22 139.55 213.61 146.55 213.61 153.6V163.65C213.595 164.735 213.719 165.817 213.98 166.87C214.481 169.436 215.536 171.863 217.07 173.98Z" fill="#E0E0E0"/>
<path d="M308.28 255.95C282.19 270.87 239.89 270.87 213.8 255.95C200.75 248.5 194.23 238.72 194.23 228.95V293.47C194.23 303.24 200.75 313.02 213.8 320.47C239.89 335.39 282.19 335.39 308.28 320.47C321.33 313.02 327.85 303.24 327.85 293.47V228.95C327.85 238.72 321.33 248.5 308.28 255.95Z" fill="#05ABE8"/>
<path d="M308.28 249.77C282.19 264.68 239.89 264.68 213.8 249.77C200.75 242.31 194.23 232.54 194.23 222.77V287.29C194.23 297.07 200.75 306.84 213.8 314.29C239.89 329.2 282.19 329.2 308.28 314.29C321.33 306.83 327.85 297.06 327.85 287.29V222.76C327.85 232.54 321.33 242.31 308.28 249.77Z" fill="#FAFAFA"/>
<path d="M239.37 287.81C239.313 283.773 238.449 279.788 236.83 276.09V276.01C234.98 271.79 232.3 268.25 229.32 266.53C224.97 264.03 221.32 268.14 219.87 273.89C219.73 274.47 219.05 274.5 218.96 273.89C217.64 266.39 213.84 257.6 209.36 255.04C206.36 253.33 203.7 253.79 201.86 255.9C200.29 257.74 199.33 260.77 199.34 264.72C199.34 276.96 206.73 287.95 212.91 299.52L219.58 310.69L225.92 306.99C232 302.58 239.39 300.05 239.37 287.81Z" fill="#05ABE8"/>
<path d="M210.23 283.81L213.08 276.34C213.149 276.102 213.294 275.894 213.493 275.746C213.691 275.598 213.932 275.519 214.18 275.52C214.43 275.522 214.671 275.609 214.864 275.767C215.057 275.926 215.19 276.146 215.24 276.39L219.65 293.54L223.16 283.94C223.241 283.721 223.389 283.533 223.583 283.402C223.777 283.271 224.006 283.204 224.24 283.21C224.47 283.224 224.69 283.31 224.869 283.455C225.049 283.6 225.178 283.798 225.24 284.02L227.85 293.3L236.92 298.53L236.71 298.85C236.399 299.284 236.065 299.701 235.71 300.1L235.52 300.32L226.31 295C226.059 294.856 225.876 294.619 225.8 294.34L224 287.95L220.35 297.95C220.267 298.176 220.113 298.369 219.911 298.5C219.709 298.632 219.47 298.695 219.23 298.68C218.992 298.662 218.766 298.567 218.586 298.411C218.406 298.254 218.281 298.043 218.23 297.81L214 281.31L212 285.8C211.955 285.964 211.873 286.115 211.761 286.241C211.648 286.368 211.507 286.467 211.35 286.53C211.19 286.598 211.016 286.627 210.843 286.617C210.67 286.606 210.501 286.556 210.35 286.47L203.1 282.28L203.05 282.18C202.7 281.39 202.36 280.61 202.05 279.82L201.67 278.88L210.23 283.81Z" fill="#FAFAFA"/>
<path d="M261.54 283.69C258.99 283.69 256.42 283.61 253.81 283.45C253.546 283.432 253.301 283.31 253.126 283.112C252.952 282.913 252.864 282.654 252.88 282.39C252.898 282.126 253.02 281.881 253.218 281.706C253.417 281.532 253.676 281.443 253.94 281.46C271.51 282.53 287.94 279.89 301.5 273.81C301.62 273.756 301.75 273.726 301.881 273.723C302.013 273.719 302.144 273.741 302.267 273.788C302.39 273.835 302.503 273.906 302.598 273.996C302.694 274.086 302.771 274.195 302.825 274.315C302.879 274.435 302.908 274.565 302.912 274.696C302.916 274.828 302.894 274.959 302.847 275.082C302.8 275.205 302.729 275.318 302.639 275.413C302.549 275.509 302.44 275.586 302.32 275.64C290.5 280.95 276.52 283.69 261.54 283.69Z" fill="#E0E0E0"/>
<path d="M261.54 294.55C258.99 294.55 256.42 294.47 253.81 294.31C253.546 294.292 253.301 294.17 253.126 293.972C252.952 293.773 252.864 293.514 252.88 293.25C252.898 292.986 253.02 292.741 253.218 292.566C253.417 292.392 253.676 292.304 253.94 292.32C271.51 293.39 287.94 290.75 301.5 284.67C301.743 284.561 302.019 284.553 302.267 284.648C302.516 284.743 302.716 284.932 302.825 285.175C302.934 285.418 302.942 285.694 302.847 285.942C302.752 286.191 302.563 286.391 302.32 286.5C290.5 291.81 276.52 294.55 261.54 294.55Z" fill="#E0E0E0"/>
<path d="M261.54 305.42C258.99 305.42 256.42 305.34 253.81 305.18C253.545 305.163 253.297 305.041 253.122 304.841C252.947 304.641 252.858 304.38 252.875 304.115C252.892 303.85 253.014 303.602 253.214 303.427C253.414 303.252 253.675 303.163 253.94 303.18C271.51 304.26 287.94 301.62 301.5 295.54C301.741 295.432 302.016 295.424 302.263 295.517C302.511 295.611 302.711 295.799 302.82 296.04C302.875 296.16 302.906 296.29 302.911 296.422C302.915 296.554 302.894 296.686 302.847 296.809C302.801 296.933 302.73 297.046 302.64 297.142C302.549 297.239 302.441 297.316 302.32 297.37C290.5 302.66 276.52 305.42 261.54 305.42Z" fill="#E0E0E0"/>
<path d="M225.36 442.93C225.255 442.621 225.128 442.321 224.98 442.03C224.855 441.782 224.715 441.541 224.56 441.31C223.839 440.265 222.93 439.363 221.88 438.65V441.42L219.51 440.04V437.29C212.91 434.16 203.15 434.39 196.99 437.94C194.901 438.996 193.264 440.772 192.38 442.94C192.38 443.1 192.29 443.25 192.25 443.41C192.131 443.864 192.071 444.331 192.07 444.8V450.29C192.091 451.605 192.521 452.881 193.3 453.94C194.286 455.262 195.544 456.356 196.99 457.15C203.56 460.94 214.2 460.94 220.75 457.15C224.03 455.25 225.68 452.77 225.68 450.29V444.8C225.678 444.163 225.57 443.531 225.36 442.93Z" fill="#F0F0F0"/>
<path d="M214.14 435.58C208.31 434.47 201.63 435.25 196.99 437.93C194.901 438.986 193.264 440.762 192.38 442.93C192.38 443.09 192.29 443.24 192.25 443.4C192.131 443.854 192.071 444.321 192.07 444.79V450.28C192.091 451.595 192.521 452.871 193.3 453.93C194.286 455.252 195.544 456.346 196.99 457.14C201.63 459.82 208.31 460.59 214.14 459.48V435.58Z" fill="#EBEBEB"/>
<path d="M197 437.93C190.84 441.49 190.46 447.12 195.87 450.93L219.51 437.28C212.91 434.16 203.16 434.42 197 437.93Z" fill="#FAFAFA"/>
<path d="M195.86 449.49C195.86 449.49 189.33 444.49 196.59 438.18C190.83 441.74 190.59 447.18 195.87 450.93L219.51 437.28L195.86 449.49Z" fill="white"/>
<path d="M221.88 438.65L198.24 452.3C204.84 455.42 214.6 455.21 220.76 451.65C226.92 448.09 227.29 442.42 221.88 438.65Z" fill="#FAFAFA"/>
<path d="M198.24 452.3C204.84 455.42 214.6 455.21 220.76 451.65C221.446 451.259 222.095 450.807 222.7 450.3C210.61 456.36 200.89 452.09 200.89 452.09L221.89 438.65L198.24 452.3Z" fill="white"/>
<path d="M219.51 440.03L195.87 453.74V450.93L219.51 437.28V440.03Z" fill="#E0E0E0"/>
<path opacity="0.2" d="M198.24 452.3L198.25 455.11L195.87 453.74L198.24 452.3Z" fill="black"/>
<path d="M232 434.13C231.897 433.818 231.77 433.513 231.62 433.22C231.49 432.976 231.346 432.739 231.19 432.51C230.473 431.465 229.567 430.563 228.52 429.85V432.6L226.14 431.22V428.47C219.54 425.35 209.79 425.57 203.63 429.13C201.536 430.18 199.897 431.958 199.02 434.13C198.97 434.29 198.92 434.44 198.88 434.59C198.769 435.045 198.712 435.512 198.71 435.98V441.48C198.731 442.795 199.161 444.071 199.94 445.13C200.924 446.451 202.183 447.543 203.63 448.33C210.19 452.12 220.83 452.12 227.39 448.33C230.67 446.44 232.31 443.96 232.31 441.48V435.98C232.31 435.35 232.206 434.725 232 434.13Z" fill="#F0F0F0"/>
<path d="M220.73 426.77C214.89 425.66 208.22 426.45 203.58 429.13C201.486 430.18 199.847 431.958 198.97 434.13C198.92 434.29 198.87 434.44 198.83 434.59C198.719 435.045 198.662 435.512 198.66 435.98V441.48C198.681 442.795 199.111 444.071 199.89 445.13C200.874 446.451 202.133 447.543 203.58 448.33C208.22 451.01 214.89 451.79 220.73 450.68V426.77Z" fill="#EBEBEB"/>
<path d="M203.58 429.13C197.42 432.68 197.04 438.31 202.45 442.13L226.09 428.49C219.49 425.35 209.74 425.57 203.58 429.13Z" fill="#FAFAFA"/>
<path d="M202.45 440.69C202.45 440.69 195.92 435.69 203.18 429.37C197.41 432.94 197.18 438.37 202.45 442.12L226.09 428.48L202.45 440.69Z" fill="white"/>
<path d="M228.47 429.85L204.83 443.5C211.43 446.62 221.18 446.4 227.34 442.84C233.5 439.28 233.87 433.66 228.47 429.85Z" fill="#FAFAFA"/>
<path d="M204.83 443.5C211.43 446.62 221.18 446.4 227.34 442.84C228.025 442.451 228.674 442.003 229.28 441.5C217.2 447.55 207.47 443.28 207.47 443.28L228.47 429.85L204.83 443.5Z" fill="white"/>
<path d="M226.09 431.22L202.45 444.94V442.12L226.09 428.48V431.22Z" fill="#E0E0E0"/>
<path opacity="0.2" d="M204.83 443.5V446.31L202.45 444.94L204.83 443.5Z" fill="black"/>
<path d="M273.56 448.8C272.56 448.22 271.93 446.97 271.93 445.19C272.035 443.253 272.595 441.368 273.565 439.688C274.534 438.008 275.886 436.58 277.51 435.52C278.073 435.111 278.735 434.86 279.427 434.791C280.12 434.723 280.818 434.839 281.45 435.13L288.63 439.29C290.444 440.339 291.767 442.066 292.308 444.09C292.849 446.114 292.564 448.271 291.515 450.085C290.466 451.899 288.739 453.222 286.715 453.763C284.691 454.304 282.534 454.019 280.72 452.97L273.56 448.8Z" fill="#F5F5F5"/>
<path d="M263.67 443.08C262.699 442.601 261.836 441.927 261.136 441.101C260.435 440.275 259.912 439.314 259.598 438.277C259.285 437.24 259.187 436.15 259.312 435.074C259.437 433.998 259.781 432.96 260.324 432.022C260.867 431.085 261.596 430.269 262.467 429.625C263.338 428.982 264.332 428.523 265.388 428.279C266.443 428.035 267.537 428.011 268.602 428.207C269.667 428.403 270.681 428.816 271.58 429.42L281.45 435.16C280.818 434.869 280.12 434.752 279.427 434.821C278.735 434.89 278.073 435.141 277.51 435.55C275.886 436.61 274.534 438.038 273.565 439.718C272.595 441.398 272.035 443.283 271.93 445.22C271.93 447 272.55 448.22 273.56 448.83L263.67 443.08Z" fill="#05ABE8"/>
<path opacity="0.4" d="M265.45 431.49C265.248 431.833 265.116 432.212 265.062 432.606C265.008 433 265.033 433.401 265.136 433.785C265.238 434.169 265.416 434.53 265.659 434.845C265.901 435.16 266.204 435.423 266.55 435.62L278.5 442.55C279.506 440.883 280.071 438.986 280.14 437.04C280.14 436.85 280.14 436.67 280.14 436.5L269.58 430.42C269.239 430.217 268.861 430.083 268.469 430.027C268.076 429.971 267.676 429.993 267.292 430.093C266.908 430.192 266.547 430.367 266.231 430.607C265.915 430.847 265.649 431.147 265.45 431.49Z" fill="white"/>
<path d="M273.56 448.8C272.56 448.22 271.93 446.97 271.93 445.19C272.035 443.253 272.595 441.368 273.565 439.688C274.534 438.008 275.886 436.58 277.51 435.52C278.073 435.111 278.735 434.86 279.427 434.791C280.12 434.723 280.818 434.839 281.45 435.13L288.63 439.29C290.444 440.339 291.767 442.066 292.308 444.09C292.849 446.114 292.564 448.271 291.515 450.085C290.466 451.899 288.739 453.222 286.715 453.763C284.691 454.304 282.534 454.019 280.72 452.97L273.56 448.8Z" fill="#F5F5F5"/>
<path opacity="0.1" d="M277.51 435.52C275.886 436.58 274.534 438.008 273.565 439.688C272.595 441.368 272.035 443.253 271.93 445.19C271.93 446.97 272.55 448.19 273.56 448.8L273 448.48L272.57 448.23C271.57 447.65 270.94 446.4 270.94 444.62C271.043 442.683 271.602 440.797 272.572 439.117C273.541 437.436 274.894 436.009 276.52 434.95C277.083 434.541 277.745 434.29 278.437 434.221C279.13 434.152 279.828 434.269 280.46 434.56L281.46 435.13C280.826 434.838 280.126 434.719 279.432 434.788C278.738 434.857 278.074 435.109 277.51 435.52Z" fill="black"/>
<path d="M292.52 445.29C292.708 446.953 292.358 448.632 291.52 450.08C291.001 450.979 290.31 451.768 289.486 452.4C288.662 453.032 287.722 453.496 286.719 453.764C285.716 454.032 284.67 454.1 283.641 453.964C282.611 453.828 281.619 453.49 280.72 452.97L273.56 448.8C272.56 448.22 271.93 446.97 271.93 445.19C271.938 444.372 272.052 443.558 272.27 442.77L284.27 449.7C288.19 451.98 292.48 447.88 292.52 445.29Z" fill="#EBEBEB"/>
<path d="M289.8 445.6C289.603 445.946 289.34 446.249 289.025 446.491C288.71 446.734 288.35 446.912 287.965 447.014C287.581 447.117 287.18 447.142 286.786 447.088C286.392 447.034 286.013 446.902 285.67 446.7L273.56 439.7C274.495 437.99 275.855 436.55 277.51 435.52L277.99 435.27L288.69 441.46C289.038 441.656 289.343 441.919 289.588 442.235C289.832 442.55 290.012 442.911 290.115 443.297C290.218 443.682 290.244 444.085 290.19 444.48C290.136 444.876 290.003 445.256 289.8 445.6Z" fill="white"/>
<path opacity="0.1" d="M261.34 431.42C261.43 431.3 261.52 431.18 261.62 431.07L261.83 430.83L262.08 430.57C262.168 430.478 262.262 430.391 262.36 430.31L262.5 430.19C262.917 429.835 263.37 429.524 263.85 429.26L264.38 429C262.17 430.33 260.77 436.09 264.7 438.37C266.05 439.15 268.07 440.37 272.23 442.75C272.012 443.538 271.898 444.352 271.89 445.17C271.89 446.95 272.51 448.17 273.52 448.78L263.63 443.06C261.816 442.01 260.492 440.283 259.95 438.258C259.408 436.233 259.692 434.076 260.74 432.26C260.86 432.05 261 431.85 261.14 431.65L261.34 431.42Z" fill="black"/>
<path d="M399.51 422.05C400.08 421.646 400.532 421.098 400.82 420.462C401.108 419.826 401.222 419.125 401.15 418.43C401.044 416.495 400.483 414.612 399.514 412.933C398.545 411.255 397.193 409.829 395.57 408.77C394.03 407.88 392.63 407.77 391.62 408.38L384.45 412.53C382.635 413.578 381.31 415.303 380.767 417.328C380.224 419.352 380.507 421.51 381.555 423.325C382.603 425.14 384.329 426.465 386.353 427.008C388.377 427.551 390.535 427.268 392.35 426.22L399.51 422.05Z" fill="#F5F5F5"/>
<path d="M409.4 416.33C411.215 415.282 412.54 413.557 413.083 411.532C413.626 409.508 413.343 407.35 412.295 405.535C411.247 403.72 409.522 402.395 407.497 401.852C405.473 401.309 403.315 401.592 401.5 402.64L391.62 408.42C392.62 407.83 394.03 407.92 395.57 408.81C397.193 409.869 398.544 411.295 399.514 412.973C400.483 414.652 401.044 416.535 401.15 418.47C401.222 419.165 401.108 419.866 400.82 420.502C400.532 421.138 400.08 421.686 399.51 422.09L409.4 416.33Z" fill="#05ABE8"/>
<path opacity="0.4" d="M407.63 404.73C407.832 405.073 407.963 405.453 408.016 405.848C408.069 406.242 408.043 406.643 407.94 407.028C407.837 407.412 407.658 407.772 407.414 408.086C407.17 408.401 406.866 408.664 406.52 408.86L394.58 415.79C393.572 414.123 393.008 412.226 392.94 410.28C392.94 410.1 392.94 409.92 392.94 409.74L403.48 403.62C403.824 403.415 404.206 403.282 404.602 403.227C404.999 403.172 405.402 403.197 405.789 403.3C406.176 403.404 406.538 403.583 406.854 403.829C407.17 404.075 407.434 404.381 407.63 404.73Z" fill="white"/>
<path d="M399.51 422.05C400.08 421.646 400.532 421.098 400.82 420.462C401.108 419.826 401.222 419.125 401.15 418.43C401.044 416.495 400.483 414.612 399.514 412.933C398.545 411.255 397.193 409.829 395.57 408.77C394.03 407.88 392.63 407.77 391.62 408.38L384.45 412.53C382.635 413.578 381.31 415.303 380.767 417.328C380.224 419.352 380.507 421.51 381.555 423.325C382.603 425.14 384.329 426.465 386.353 427.008C388.377 427.551 390.535 427.268 392.35 426.22L399.51 422.05Z" fill="#F5F5F5"/>
<path opacity="0.1" d="M395.57 408.77C397.193 409.829 398.544 411.255 399.514 412.933C400.483 414.612 401.044 416.495 401.15 418.43C401.222 419.125 401.108 419.826 400.82 420.462C400.532 421.098 400.08 421.646 399.51 422.05L400.08 421.72L400.5 421.47C401.07 421.069 401.523 420.523 401.812 419.888C402.1 419.254 402.213 418.553 402.14 417.86C402.035 415.925 401.474 414.041 400.505 412.363C399.535 410.684 398.184 409.258 396.56 408.2C395.996 407.79 395.333 407.536 394.639 407.466C393.945 407.396 393.245 407.511 392.61 407.8L391.61 408.38C392.63 407.79 394 407.88 395.57 408.77Z" fill="black"/>
<path d="M380.55 418.54C380.392 419.99 380.639 421.456 381.264 422.774C381.889 424.092 382.867 425.211 384.09 426.006C385.312 426.802 386.732 427.243 388.19 427.281C389.648 427.319 391.088 426.951 392.35 426.22L399.51 422.05C400.08 421.646 400.532 421.098 400.82 420.462C401.108 419.826 401.222 419.125 401.15 418.43C401.139 417.615 401.021 416.805 400.8 416.02L388.8 422.95C384.88 425.22 380.6 421.13 380.55 418.54Z" fill="#EBEBEB"/>
<path d="M383.28 418.84C383.476 419.186 383.739 419.49 384.054 419.734C384.368 419.978 384.728 420.157 385.113 420.26C385.497 420.363 385.898 420.389 386.292 420.336C386.687 420.283 387.067 420.152 387.41 419.95L399.52 412.95C398.579 411.247 397.22 409.811 395.57 408.78C395.412 408.687 395.248 408.603 395.08 408.53L384.38 414.72C384.036 414.917 383.734 415.18 383.492 415.494C383.25 415.808 383.073 416.167 382.971 416.551C382.868 416.934 382.843 417.333 382.896 417.726C382.949 418.119 383.08 418.498 383.28 418.84Z" fill="white"/>
<path opacity="0.1" d="M411.74 404.71L411.46 404.35L411.24 404.11L410.99 403.86L410.72 403.6L410.58 403.48C410.162 403.122 409.706 402.81 409.22 402.55L408.69 402.29C410.91 403.63 412.31 409.39 408.37 411.66C407.02 412.44 405.01 413.66 400.84 416.05C401.061 416.835 401.179 417.645 401.19 418.46C401.262 419.155 401.148 419.856 400.86 420.492C400.572 421.128 400.12 421.676 399.55 422.08L409.44 416.36C410.339 415.841 411.128 415.15 411.76 414.326C412.392 413.503 412.856 412.562 413.124 411.559C413.392 410.556 413.46 409.51 413.324 408.481C413.188 407.451 412.85 406.459 412.33 405.56C412.21 405.35 412.08 405.14 411.94 404.94L411.74 404.71Z" fill="black"/>
<path d="M364.41 329.29C364.41 324.52 361.26 319.74 354.95 316.1C342.34 308.82 321.89 308.82 309.28 316.1C302.97 319.74 299.82 324.52 299.82 329.29V412.2C299.82 416.97 302.97 421.74 309.28 425.38C321.89 432.67 342.34 432.67 354.95 425.38C361.26 421.74 364.41 416.97 364.41 412.2V329.29Z" fill="#05ABE8"/>
<path opacity="0.4" d="M352 314.61V426.88C353.025 426.447 354.027 425.96 355 425.42C356.877 424.36 358.602 423.051 360.13 421.53V320C358.601 318.478 356.876 317.166 355 316.1C354 315.56 353 315.07 352 314.61Z" fill="white"/>
<path opacity="0.4" d="M343.53 429.63C345.1 429.285 346.652 428.861 348.18 428.36V313.13C346.654 312.624 345.101 312.201 343.53 311.86V429.63Z" fill="white"/>
<path opacity="0.1" d="M363.85 325.85C361.847 323.157 359.285 320.929 356.34 319.32C343.89 312.13 324.25 311.64 310.8 317.83V315.31C310.29 315.57 309.8 315.82 309.28 316.1C302.97 319.74 299.82 324.52 299.82 329.29V341.91V394.12V412.2C299.82 416.97 302.97 421.74 309.28 425.38C321.89 432.67 342.34 432.67 354.95 425.38C357.089 424.184 359.032 422.666 360.71 420.88C354.71 426.49 339.71 429.58 328.64 427.39C317.57 425.2 310.8 418.12 310.8 413.08V396.66C317.03 400.03 325.18 401.66 333.14 401.66V368.12C325.14 368.12 317.03 366.89 310.8 363.54V348.78C324.25 354.97 343.89 354.48 356.34 347.29C359.617 345.529 362.393 342.966 364.41 339.84V329.29C364.406 328.121 364.217 326.96 363.85 325.85Z" fill="black"/>
<path opacity="0.1" d="M305.27 414.51V318.92C301.64 322.05 299.82 325.67 299.82 329.29V412.2C299.82 416.97 302.97 421.74 309.28 425.38C313.101 427.505 317.242 428.998 321.54 429.8C309.41 426.51 305.27 418.22 305.27 414.51Z" fill="black"/>
<path d="M366.37 314.54C366.37 309.48 363.03 304.41 356.37 300.54C342.99 292.82 321.3 292.82 307.92 300.54C301.23 304.4 297.92 309.47 297.92 314.54V329.72C297.92 334.78 301.26 339.85 307.92 343.72C321.3 351.44 342.99 351.44 356.37 343.72C363.06 339.86 366.37 334.79 366.37 329.72V314.54Z" fill="#E0E0E0"/>
<g opacity="0.2">
<path opacity="0.2" d="M367.19 313.13H365.55V336.75H367.19V313.13Z" fill="black"/>
<path opacity="0.2" d="M363.41 319.51H361.77V343.26H363.41V319.51Z" fill="black"/>
<path opacity="0.2" d="M357.69 323.9H356.05V347.77H357.69V323.9Z" fill="black"/>
<path opacity="0.2" d="M351.17 326.63H349.53V350.63H351.17V326.63Z" fill="black"/>
<path opacity="0.2" d="M344 328.45H342.36V352.58H344V328.45Z" fill="black"/>
<path opacity="0.2" d="M336.41 329.36H334.77V353.62H336.41V329.36Z" fill="black"/>
<path opacity="0.2" d="M328.7 329.33H327.06V353.71H328.7V329.33Z" fill="black"/>
<path opacity="0.2" d="M321.18 328.33H319.54V352.84H321.18V328.33Z" fill="black"/>
<path opacity="0.2" d="M314.13 326.3H312.49V350.94H314.13V326.3Z" fill="black"/>
<path opacity="0.2" d="M307.74 323.16H306.1V347.93H307.74V323.16Z" fill="black"/>
<path opacity="0.2" d="M302.67 318.79H301.03V343.68H302.67V318.79Z" fill="black"/>
<path opacity="0.2" d="M298.68 311.73H297.04V336.75H298.68V311.73Z" fill="black"/>
</g>
<path opacity="0.1" d="M340.31 348.9C323.36 349 314.41 343.49 311.7 339C309.63 335.58 309.28 329.28 309.28 323C309.28 323 307.37 308.76 307.74 308.72C308.11 308.68 303.67 307.72 300.38 307.06C298.781 309.219 297.9 311.824 297.86 314.51V329.72C297.86 334.78 301.2 339.85 307.86 343.72C316.68 348.78 329.06 350.5 340.31 348.9Z" fill="black"/>
<path d="M332.11 334.32C351.031 334.32 366.37 325.464 366.37 314.54C366.37 303.616 351.031 294.76 332.11 294.76C313.189 294.76 297.85 303.616 297.85 314.54C297.85 325.464 313.189 334.32 332.11 334.32Z" fill="#EBEBEB"/>
<path d="M358.18 327.35C369.66 319.58 369.06 307.9 356.34 300.55C349.82 296.79 341.34 294.87 332.77 294.78C328.387 295.461 324.157 296.903 320.27 299.04C308.71 305.65 308.71 318.85 320.27 325.46C330.59 331.36 346.63 331.98 358.18 327.35Z" fill="#F5F5F5"/>
<path opacity="0.1" d="M311.14 423.91C322.72 429.73 341.51 429.73 353.09 423.91C364.67 418.09 364.68 408.65 353.09 402.83C341.5 397.01 322.72 397.01 311.14 402.83C299.56 408.65 299.55 418.09 311.14 423.91Z" fill="black"/>
<path d="M299.82 351.08C299.82 355.85 302.97 360.62 309.28 364.26C315.59 367.9 323.85 369.72 332.11 369.72V402.59C323.85 402.59 315.58 400.77 309.28 397.13C302.98 393.49 299.82 388.72 299.82 383.95V351.08Z" fill="white"/>
<path d="M300.48 322.13C300.48 322.13 311.62 333.35 333.14 332.76C354.66 332.17 363.28 320.42 364.41 316.76C364.99 314.614 365.028 312.359 364.522 310.195C364.016 308.031 362.981 306.026 361.51 304.36C362.967 305.636 364.149 307.194 364.984 308.941C365.819 310.687 366.291 312.585 366.37 314.52V329.72C366.37 331 367.03 335.42 360.08 341.14C360.08 341.14 364.16 336.51 364.16 332.06V321.56C364.16 321.56 356.54 334.3 333.16 334.3C309.78 334.3 301.66 324.04 300.48 322.13Z" fill="white"/>
<defs>
<filter id="filter0_i" x="0" y="0" width="588" height="589" filterUnits="userSpaceOnUse" color-interpolation-filters="sRGB">
<feFlood flood-opacity="0" result="BackgroundImageFix"/>
<feBlend mode="normal" in="SourceGraphic" in2="BackgroundImageFix" result="shape"/>
<feColorMatrix in="SourceAlpha" type="matrix" values="0 0 0 0 0 0 0 0 0 0 0 0 0 0 0 0 0 0 127 0" result="hardAlpha"/>
<feOffset dx="3" dy="4"/>
<feGaussianBlur stdDeviation="2"/>
<feComposite in2="hardAlpha" operator="arithmetic" k2="-1" k3="1"/>
<feColorMatrix type="matrix" values="0 0 0 0 0 0 0 0 0 0 0 0 0 0 0 0 0 0 0.25 0"/>
<feBlend mode="normal" in2="shape" result="effect1_innerShadow"/>
</filter>
</defs>
</svg>
