<svg width="585" height="585" viewBox="0 0 585 585" fill="none" xmlns="http://www.w3.org/2000/svg">
<g filter="url(#filter0_i)">
<circle cx="292.5" cy="292.5" r="292.5" fill="white"/>
</g>
<path d="M278.792 276.637C279.087 276.637 279.375 276.553 279.623 276.394C279.871 276.236 280.069 276.01 280.193 275.743L285.389 264.601H302.623C303.033 264.601 303.426 264.438 303.715 264.149C304.005 263.86 304.167 263.467 304.167 263.058C304.167 262.649 304.005 262.257 303.715 261.968C303.426 261.678 303.033 261.516 302.623 261.516H284.405C284.111 261.516 283.822 261.6 283.574 261.759C283.326 261.917 283.129 262.143 283.005 262.41L277.394 274.443C277.285 274.678 277.236 274.937 277.253 275.196C277.27 275.454 277.352 275.704 277.491 275.923C277.631 276.142 277.823 276.322 278.05 276.447C278.278 276.572 278.533 276.637 278.792 276.638V276.637Z" fill="#233862"/>
<path d="M289.851 265.388H303.092C303.71 265.386 304.303 265.139 304.74 264.703C305.177 264.266 305.424 263.674 305.426 263.056C305.424 262.438 305.178 261.846 304.74 261.409C304.303 260.972 303.71 260.725 303.092 260.723H289.851C289.232 260.725 288.639 260.972 288.202 261.409C287.764 261.846 287.518 262.438 287.516 263.056C287.518 263.674 287.764 264.266 288.202 264.703C288.639 265.14 289.232 265.386 289.851 265.388Z" fill="#233862"/>
<path d="M303.324 258.221C302.892 258.55 295.207 257.575 292.735 259.134C290.263 260.692 287.888 265.016 288.997 266.56C290.107 268.105 295.363 263.469 296.909 263.547C298.455 263.626 302.892 262.255 302.892 262.255L303.324 258.221Z" fill="#FFB27D"/>
<path d="M300.978 257.607C300.525 258.408 300.255 259.3 300.189 260.218C300.138 261.285 300.413 262.341 300.978 263.247C307.419 263.649 313.884 263.414 320.279 262.545C325.839 261.742 331.622 260.262 336.148 257.606C342.294 253.996 348.005 241.141 352.253 228.87C356.76 215.861 359.623 203.503 359.623 203.503C357.53 198.444 351.993 195.395 347.331 196.143C344.775 196.55 338.786 198.521 337.432 200.3C335.354 203.027 329.483 227.931 324.877 239.717C323.859 242.306 300.978 257.607 300.978 257.607Z" fill="#F5F6FF"/>
<path d="M320.276 262.546C325.836 261.743 331.619 260.263 336.145 257.607C342.291 253.997 348.002 241.142 352.25 228.871C352.318 220.009 352.318 212.693 352.318 212.693L342.254 216.862C341.944 217.48 338.698 247.903 331.433 254.08C327.914 257.156 324.186 259.985 320.276 262.546Z" fill="#E7E9FF"/>
<path opacity="0.2" d="M195.866 339.106H191.029V440.133H195.866V339.106Z" fill="#233862"/>
<g opacity="0.2">
<path opacity="0.2" d="M184.861 447.633C184.861 445.937 185.365 444.278 186.308 442.867C187.252 441.457 188.593 440.357 190.162 439.708C191.731 439.059 193.458 438.889 195.123 439.22C196.789 439.551 198.319 440.368 199.52 441.567C200.721 442.767 201.539 444.296 201.87 445.96C202.201 447.624 202.031 449.349 201.381 450.916C200.731 452.484 199.631 453.824 198.219 454.766C196.807 455.709 195.146 456.212 193.448 456.212C191.171 456.212 188.987 455.308 187.376 453.699C185.766 452.091 184.861 449.909 184.861 447.633Z" fill="#233862"/>
<path opacity="0.2" d="M196.394 447.632C196.394 447.05 196.221 446.48 195.897 445.996C195.573 445.512 195.113 445.134 194.574 444.911C194.035 444.688 193.442 444.63 192.871 444.743C192.299 444.857 191.773 445.138 191.361 445.55C190.949 445.961 190.668 446.486 190.554 447.058C190.44 447.629 190.499 448.221 190.722 448.759C190.945 449.298 191.323 449.757 191.808 450.081C192.293 450.405 192.863 450.577 193.446 450.577C194.228 450.577 194.977 450.267 195.53 449.715C196.083 449.163 196.394 448.413 196.394 447.632Z" fill="#05ABE8"/>
</g>
<path d="M315.64 276.637C315.934 276.637 316.223 276.553 316.471 276.394C316.719 276.236 316.917 276.01 317.041 275.743L322.236 264.601H339.471C339.88 264.601 340.273 264.438 340.563 264.149C340.852 263.86 341.015 263.467 341.015 263.058C341.015 262.649 340.852 262.257 340.563 261.968C340.273 261.678 339.88 261.516 339.471 261.516H321.252C320.958 261.516 320.67 261.6 320.422 261.759C320.174 261.917 319.976 262.143 319.853 262.41L314.241 274.443C314.131 274.678 314.083 274.937 314.1 275.196C314.117 275.454 314.199 275.704 314.338 275.923C314.477 276.142 314.67 276.322 314.897 276.447C315.124 276.572 315.38 276.637 315.639 276.638L315.64 276.637Z" fill="#233862"/>
<g opacity="0.2">
<g opacity="0.2">
<g opacity="0.2">
<path opacity="0.2" d="M249.262 452.102C249.62 450.491 231.399 386.494 229.322 379.202L228.728 379.372C234.312 398.958 248.779 450.185 248.659 451.987L249.262 452.102Z" fill="#2D53A0"/>
</g>
<g opacity="0.2">
<path opacity="0.2" d="M275.624 405.602C274.012 405.243 209.954 423.448 202.655 425.522L202.824 426.116C222.429 420.537 273.705 406.084 275.508 406.204L275.624 405.602Z" fill="#2D53A0"/>
</g>
<g opacity="0.2">
<path opacity="0.2" d="M268.917 392.342C267.29 392.632 215.209 434.098 209.276 438.829L209.659 439.311C225.596 426.613 267.332 393.529 269.042 392.945L268.917 392.342Z" fill="#2D53A0"/>
</g>
<g opacity="0.2">
<path opacity="0.2" d="M201.169 410.874C202.717 410.299 268.679 419.475 276.198 420.524L276.113 421.135C255.924 418.318 203.139 411.089 201.37 411.457L201.169 410.874Z" fill="#2D53A0"/>
</g>
<g opacity="0.2">
<path opacity="0.2" d="M253.45 381.067C252.184 382.128 227.685 443.998 224.896 451.049L225.472 451.277C232.964 432.336 252.67 382.884 253.861 381.527L253.45 381.067Z" fill="#2D53A0"/>
</g>
<g opacity="0.2">
<path opacity="0.2" d="M209.31 393.141C210.941 393.41 263.569 434.183 269.566 438.831L269.187 439.318C253.082 426.832 210.909 394.305 209.191 393.746L209.31 393.141Z" fill="#2D53A0"/>
</g>
</g>
<path opacity="0.2" d="M241.731 411.863C239.105 410.777 236.094 412.022 235.007 414.646C233.919 417.269 235.166 420.277 237.792 421.364C240.418 422.451 243.429 421.205 244.516 418.581C245.604 415.958 244.357 412.95 241.731 411.863Z" fill="#05ABE8"/>
<g opacity="0.2">
<path opacity="0.2" d="M280.212 415.799C280.212 407.806 277.84 399.993 273.395 393.347C268.95 386.701 262.633 381.521 255.241 378.462C247.85 375.404 239.716 374.603 231.87 376.163C224.023 377.722 216.815 381.571 211.158 387.223C205.501 392.875 201.648 400.075 200.087 407.915C198.526 415.754 199.327 423.88 202.389 431.264C205.451 438.648 210.635 444.96 217.288 449.401C223.94 453.841 231.761 456.211 239.761 456.211C250.486 456.199 260.768 451.938 268.351 444.362C275.935 436.785 280.2 426.513 280.212 415.799ZM275.889 415.799C275.889 422.937 273.77 429.916 269.8 435.851C265.831 441.787 260.188 446.413 253.587 449.145C246.985 451.877 239.721 452.591 232.713 451.199C225.705 449.806 219.267 446.368 214.215 441.321C209.162 436.273 205.721 429.842 204.327 422.84C202.933 415.839 203.649 408.582 206.383 401.987C209.118 395.391 213.748 389.754 219.69 385.788C225.631 381.822 232.616 379.706 239.761 379.706C249.34 379.716 258.522 383.523 265.295 390.289C272.068 397.055 275.878 406.23 275.889 415.799Z" fill="#233862"/>
</g>
</g>
<path d="M326.698 265.388H339.939C340.558 265.386 341.15 265.139 341.588 264.703C342.025 264.266 342.271 263.674 342.273 263.056C342.271 262.438 342.025 261.846 341.588 261.409C341.15 260.972 340.558 260.725 339.939 260.723H326.698C326.079 260.725 325.487 260.972 325.05 261.409C324.612 261.846 324.366 262.438 324.364 263.056C324.366 263.674 324.612 264.266 325.05 264.703C325.487 265.139 326.08 265.386 326.698 265.388Z" fill="#233862"/>
<path d="M209.776 329.774C209.776 329.774 202.287 330.546 201.361 331.574C200.434 332.602 197.038 338.223 196.935 339.269C196.832 340.314 196.909 342.243 197.681 341.934C198.453 341.625 201.69 336.484 203.33 336.406C204.971 336.329 210.217 334.137 210.217 334.137L209.776 329.774Z" fill="#ED985F"/>
<path d="M217.62 369.744L287.301 370.46L318.649 272.565L254.198 271.85L217.62 369.744Z" fill="#2B478B"/>
<path d="M240.116 276.839C240.116 276.839 238.735 312.832 235.379 316.413C233.21 318.728 209.779 329.776 209.779 329.776L210.015 334.189C210.015 334.189 240.493 329.879 244.984 324.449C253.852 313.728 254.438 284.504 254.868 281.398C255.299 278.292 246.39 272.059 240.116 276.839Z" fill="#ED985F"/>
<path d="M171.52 429.117H194.842C194.842 429.117 195.714 425.401 194.182 422.872C192.828 420.637 193.347 419.36 194.351 417.509C193.113 418.044 191.771 418.296 190.423 418.247C189.189 418.108 188.003 417.691 186.954 417.028C185.95 418.172 181.65 423.038 180.308 424.002C178.786 425.097 171.989 424.707 171.52 429.117Z" fill="#1A3670"/>
<path d="M279.044 343.91C278.256 348.429 275.878 352.517 272.339 355.439C268.801 358.361 264.334 359.924 259.744 359.846C248.001 359.706 230.852 359.472 224.563 359.235C211.238 358.733 206.231 359.27 206.272 359.646C206.87 365.238 207.362 362.852 201.152 362.416C201.152 362.416 179.196 361.798 185.766 346.791C192.336 331.784 254.714 327.106 260.226 327.758C264.914 328.313 281.45 329.451 279.044 343.91Z" fill="#0085B6"/>
<path d="M184.574 352.68C184.855 363.288 186.501 392.685 182.365 416.296C181.316 422.285 189.918 422.468 189.979 422.476C191.613 422.668 194.48 422.811 195.434 421.627C202.068 413.403 211.432 375.232 208.887 359.382C207.646 351.656 199.933 351.791 193.705 348.942C189.87 347.186 184.461 348.467 184.574 352.68Z" fill="#0085B6"/>
<path d="M299.492 336.853H294.655V417.48H299.492V336.853Z" fill="#233862"/>
<path d="M262.448 212.475C259.078 211.563 255.536 211.485 252.13 212.248C248.723 213.011 245.554 214.593 242.897 216.856C240.177 219.153 237.677 221.699 235.431 224.46C229.341 232 239.686 240.403 238.098 242.985C236.51 245.566 233.062 247.479 234.2 253.125C235.337 258.771 244.518 266.54 247.628 267.044C279.154 272.119 293.923 255.443 283.865 245.418C273.807 235.392 278.918 221.982 270.616 216.181C268.124 214.49 265.362 213.237 262.448 212.475Z" fill="#233862"/>
<path d="M239.068 274.243C241.993 276.469 245.318 278.114 248.863 279.089C264.137 283.55 270.818 270.823 273.561 261.978C271.996 260.99 270.241 260.34 268.41 260.067C267.299 259.871 266.128 259.716 265.156 259.612C263.494 258.182 261.218 252.589 261.13 244.107L260.39 244.26L248.001 246.895C248.001 246.895 248.337 250.8 248.4 254.477C248.447 257.355 248.322 260.096 247.741 260.734C246.888 260.976 246.123 261.236 246.123 261.236C245.938 261.51 245.931 261.387 245.99 261.295C243.27 265.378 240.952 269.715 239.068 274.243Z" fill="#FFB27D"/>
<path d="M248.003 246.9C248.003 246.9 248.341 250.803 248.402 254.483C255.352 254.189 258.938 247.8 260.393 244.267L248.003 246.9Z" fill="#ED985F"/>
<path d="M245.73 250.417C245.73 250.417 262.185 250.455 262.051 240.218C261.916 229.981 263.95 223.09 253.439 222.633C242.928 222.176 240.938 226.109 240.151 229.537C239.364 232.965 241.446 250.143 245.73 250.417Z" fill="#FFB27D"/>
<path d="M240.559 223.838C243.059 220.723 244.989 221.371 246.08 222.282C255.001 217.216 260.899 224.435 260.899 224.435C261.692 228.901 264.013 232.953 267.466 235.898C267.466 235.898 264.425 238.054 257.557 236.113C248.768 233.63 246.156 225.743 245.808 224.534C244.816 225.45 243.571 225.996 242.525 228.046C241.28 230.479 240.505 231.888 240.249 235.988C240.251 235.988 236.811 228.511 240.559 223.838Z" fill="#233862"/>
<path d="M222.485 428.755H164V433.492H222.485V428.755Z" fill="#233862"/>
<path d="M286.209 343.91C285.421 348.429 283.043 352.517 279.504 355.439C275.965 358.361 271.499 359.924 266.908 359.846C255.166 359.706 238.016 359.472 231.728 359.235C218.403 358.733 213.396 359.27 213.436 359.646C214.034 365.238 214.527 362.852 208.317 362.416C208.317 362.416 186.362 361.798 192.93 346.791C199.499 331.784 261.878 327.106 267.39 327.758C272.079 328.313 288.615 329.451 286.209 343.91Z" fill="#05ABE8"/>
<path d="M286.28 312.756C285.162 305.116 287.883 276.191 281.834 267.15C277.46 260.613 271.394 258.033 263.909 257.911C261.499 259.276 252.319 264.431 248.722 263.516C248.684 263.505 248.613 263.485 248.521 263.456C246.833 262.929 246.256 261.69 247.745 260.736C247.745 260.736 241.609 262.06 239.706 264.219C237.875 266.296 237.958 270.751 237.376 276C237.232 277.299 237.209 278.61 237.051 279.908C236.329 285.812 238.236 286.451 244.747 303.489C247.93 311.82 246.438 318.471 244.314 322.899C243.387 324.814 243.196 327.002 243.778 329.047C244.359 331.093 245.673 332.854 247.469 333.995C260.326 342.127 285.329 356.273 286.21 343.91C287.102 331.363 287.824 323.31 286.28 312.756Z" fill="#F5F6FF"/>
<path d="M264.459 275.719C264.459 275.719 258.283 317.604 254.17 321.152C251.509 323.445 225.067 327.697 225.067 327.697L224.633 331.77C224.633 331.77 262.355 334.537 264.512 331.391C273.224 318.693 279.32 285.841 280.159 282.473C280.998 279.106 271.928 271.202 264.459 275.719Z" fill="#FFB27D"/>
<path d="M178.686 428.803H202.008C202.008 428.803 202.88 425.087 201.349 422.558C199.993 420.324 200.513 419.047 201.516 417.195C200.278 417.731 198.936 417.983 197.588 417.935C196.355 417.795 195.169 417.379 194.12 416.716C193.116 417.859 188.815 422.726 187.473 423.689C185.951 424.784 179.155 424.393 178.686 428.803Z" fill="#2B478B"/>
<path d="M191.739 352.68C192.02 363.288 193.665 392.685 189.53 416.296C188.481 422.285 197.083 422.468 197.144 422.476C198.778 422.668 201.644 422.811 202.599 421.627C209.232 413.403 218.597 375.232 216.052 359.382C214.81 351.656 207.098 351.791 200.87 348.942C197.035 347.186 191.629 348.467 191.739 352.68Z" fill="#05ABE8"/>
<path d="M242.998 244.377C242.998 244.377 244.583 243.854 248.926 244.458C248.926 244.458 248.597 246.145 245.369 246.128C244.842 246.115 244.331 245.94 243.907 245.626C243.483 245.313 243.165 244.877 242.998 244.377Z" fill="white"/>
<path d="M258.593 288.282C258.593 288.282 269.774 297.964 282.773 294.658C282.773 294.658 287.457 263.404 271.183 262.973C271.183 262.973 257.699 268.312 258.593 288.282Z" fill="#F5F6FF"/>
<path d="M294.655 364.072H216.48V370.22H294.655V364.072Z" fill="#233862"/>
<path d="M260.74 367.297L255.148 364.072L216.894 430.267L222.485 433.492L260.74 367.297Z" fill="#233862"/>
<path d="M294.655 364.072C293.229 364.072 287.8 358.959 279.282 359.235C270.764 359.511 223.241 359.224 223.241 359.224C223.241 359.224 217.037 358.574 216.457 364.072H294.655Z" fill="#2D53A0"/>
<path d="M223.241 339.106H218.403V440.133H223.241V339.106Z" fill="#233862"/>
<path d="M225.064 327.7C225.064 327.7 216.701 328.181 215.775 329.209C214.849 330.237 211.451 335.858 211.349 336.904C211.247 337.95 211.323 339.877 212.095 339.569C212.867 339.26 216.071 333.707 217.711 333.631C219.352 333.554 224.63 331.774 224.63 331.774L225.064 327.7Z" fill="#FFB27D"/>
<path d="M302.529 341.966H211.334C211.334 339.281 212.402 336.705 214.303 334.806C216.204 332.907 218.782 331.841 221.47 331.841H296.491C298.092 331.841 299.628 332.476 300.76 333.607C301.893 334.739 302.529 336.273 302.529 337.873V341.966Z" fill="#233862"/>
<path d="M306.574 452.102C306.933 450.491 288.71 386.494 286.635 379.202L286.041 379.372C291.625 398.958 306.091 450.185 305.972 451.987L306.574 452.102Z" fill="#2D53A0"/>
<path d="M332.937 405.602C331.324 405.243 267.267 423.448 259.967 425.522L260.136 426.116C279.742 420.537 331.018 406.084 332.821 406.204L332.937 405.602Z" fill="#2D53A0"/>
<path d="M326.229 392.342C324.602 392.632 272.521 434.098 266.588 438.829L266.971 439.311C282.908 426.613 324.644 393.529 326.354 392.945L326.229 392.342Z" fill="#2D53A0"/>
<path d="M258.481 410.874C260.029 410.299 325.991 419.475 333.511 420.524L333.426 421.135C313.236 418.318 260.452 411.089 258.683 411.457L258.481 410.874Z" fill="#2D53A0"/>
<path d="M310.762 381.067C309.497 382.128 284.998 443.998 282.209 451.049L282.784 451.277C290.277 432.336 309.982 382.884 311.174 381.527L310.762 381.067Z" fill="#2D53A0"/>
<path d="M266.623 393.141C268.253 393.41 320.882 434.183 326.878 438.831L326.5 439.318C310.395 426.832 268.222 394.305 266.505 393.746L266.623 393.141Z" fill="#2D53A0"/>
<path d="M302.221 416.614C302.221 415.597 301.919 414.603 301.354 413.757C300.788 412.912 299.984 412.253 299.044 411.864C298.103 411.475 297.069 411.373 296.07 411.571C295.072 411.77 294.155 412.259 293.435 412.978C292.715 413.697 292.225 414.614 292.027 415.611C291.828 416.608 291.93 417.642 292.32 418.582C292.709 419.521 293.369 420.324 294.215 420.889C295.061 421.454 296.056 421.756 297.074 421.756C297.75 421.756 298.419 421.623 299.044 421.364C299.668 421.106 300.236 420.727 300.714 420.25C301.191 419.772 301.571 419.206 301.829 418.582C302.088 417.958 302.221 417.289 302.221 416.614Z" fill="#05ABE8"/>
<path d="M337.525 415.799C337.525 407.806 335.152 399.993 330.708 393.347C326.263 386.701 319.945 381.521 312.554 378.462C305.162 375.404 297.029 374.603 289.182 376.163C281.335 377.722 274.127 381.571 268.47 387.223C262.813 392.875 258.96 400.075 257.4 407.915C255.839 415.754 256.64 423.88 259.702 431.264C262.763 438.648 267.948 444.96 274.6 449.401C281.252 453.841 289.073 456.211 297.074 456.211C307.798 456.199 318.08 451.938 325.664 444.362C333.247 436.785 337.513 426.513 337.525 415.799ZM333.202 415.799C333.202 422.937 331.083 429.916 327.113 435.851C323.144 441.787 317.501 446.413 310.9 449.145C304.298 451.877 297.034 452.591 290.026 451.199C283.018 449.806 276.581 446.368 271.528 441.321C266.475 436.273 263.035 429.842 261.641 422.84C260.247 415.839 260.962 408.582 263.696 401.987C266.431 395.391 271.062 389.754 277.003 385.788C282.944 381.822 289.929 379.706 297.074 379.706C306.653 379.716 315.835 383.523 322.608 390.289C329.381 397.056 333.191 406.23 333.202 415.799Z" fill="#233862"/>
<path d="M212.235 447.633C212.235 445.937 212.739 444.278 213.683 442.867C214.626 441.457 215.967 440.357 217.536 439.708C219.105 439.059 220.832 438.889 222.497 439.22C224.163 439.551 225.693 440.368 226.894 441.567C228.095 442.767 228.913 444.296 229.244 445.96C229.575 447.624 229.405 449.349 228.755 450.916C228.105 452.484 227.005 453.824 225.593 454.766C224.181 455.709 222.521 456.212 220.822 456.212C218.545 456.212 216.361 455.308 214.75 453.699C213.14 452.091 212.235 449.909 212.235 447.633Z" fill="#233862"/>
<path d="M223.77 447.632C223.77 447.05 223.597 446.48 223.273 445.996C222.95 445.512 222.489 445.134 221.95 444.911C221.412 444.688 220.819 444.63 220.247 444.743C219.675 444.857 219.15 445.138 218.738 445.55C218.325 445.961 218.044 446.486 217.931 447.058C217.817 447.629 217.875 448.221 218.098 448.759C218.322 449.298 218.699 449.757 219.184 450.081C219.669 450.405 220.239 450.577 220.822 450.577C221.604 450.577 222.354 450.267 222.907 449.715C223.46 449.163 223.77 448.413 223.77 447.632Z" fill="#05ABE8"/>
<path d="M383.923 209.061C385.08 206.831 358.668 198.8 358.25 220.809C358.25 220.809 308.773 219.596 332.397 192.043C340.578 182.506 339.734 174.619 339.491 167.279C339.248 159.939 344.586 138.6 362.899 140.748C362.899 140.748 367.692 138.799 373.68 141.898C387.29 148.958 417.781 217.18 383.923 209.061Z" fill="#163560"/>
<path d="M417.397 431.194C417.397 431.194 422.941 436.249 421.86 439.84C420.779 443.432 415.775 445.826 415.098 450.215C414.422 454.605 411.718 456.999 409.283 456.999H397.679C397.679 456.999 395.889 453.91 400.214 452.977C404.539 452.043 406.173 446.888 405.902 442.098C405.79 438.369 405.925 434.636 406.308 430.925L415.503 428.797L417.397 431.194Z" fill="#233862"/>
<path d="M370.471 433.34C370.471 433.34 372.46 455.014 370.023 456.211H338.604C338.604 456.211 338.879 452.295 343.882 451.497C348.885 450.699 357.675 447.773 359.163 441.254C360.65 434.736 370.471 433.34 370.471 433.34Z" fill="#233862"/>
<path d="M392.671 279.715C386.261 265.354 382.339 261.231 383.085 256.774C383.642 253.454 381.388 194.916 381.388 194.916C380.627 194.682 379.103 194.47 378.269 194.285C376.974 194.009 375.771 193.408 374.772 192.541C373.773 191.673 373.011 190.566 372.557 189.323C371.173 185.061 370.519 180.595 370.622 176.115L369.801 176.276L355.997 179.007C355.997 179.007 356.31 183.349 356.32 187.435C356.32 187.469 356.32 187.504 356.32 187.537C356.331 189.265 355.777 190.949 354.743 192.333C353.709 193.718 352.25 194.727 350.589 195.208C348.845 195.711 347.33 196.14 347.33 196.14C347.33 196.14 342.26 210.601 341.292 225.456C340.324 240.311 350.511 246.764 341.215 276.449C331.721 306.769 396.211 287.65 392.671 279.715Z" fill="#FFB27D"/>
<path d="M355.994 179.007C355.994 179.007 356.308 183.349 356.317 187.435C364.043 187.218 368.127 180.177 369.802 176.274L355.994 179.007Z" fill="#E8945B"/>
<path d="M353.414 182.879C353.414 182.879 371.692 183.181 371.706 171.805C371.72 160.43 374.086 152.808 362.416 152.135C350.746 151.462 348.474 155.799 347.545 159.596C346.615 163.392 348.659 182.508 353.414 182.879Z" fill="#FFB27D"/>
<path d="M354.091 151.856C354.091 151.856 359.096 165.2 366.776 167.175C374.457 169.15 377.788 167.092 377.788 167.092C373.999 163.767 371.484 159.228 370.674 154.254C370.674 154.254 357.866 145.504 354.091 151.856Z" fill="#163560"/>
<path d="M355.331 152.939C355.331 152.939 351.62 154.325 350.09 157.029C348.245 160.187 347.385 163.823 347.619 167.472C347.619 167.472 343.849 158.401 348.086 153.27C352.581 147.829 355.331 152.939 355.331 152.939Z" fill="#163560"/>
<path d="M357.391 175.823C356.922 176.354 356.336 176.769 355.679 177.036C355.023 177.303 354.313 177.414 353.606 177.362C353.014 177.328 352.442 177.138 351.948 176.811C351.453 176.485 351.054 176.034 350.79 175.504C350.79 175.504 354.523 174.606 357.391 175.823Z" fill="#EBF3FA"/>
<path d="M343.883 254.111L362.018 259.522L367.77 258.114L384.124 254.111C384.124 254.111 386.239 253.409 388.112 249.086C388.792 247.038 389.347 244.95 389.774 242.834C390.513 239.564 391.28 235.734 391.712 233.025C392.346 229.041 393.617 224.081 394.724 218.734V218.727C395.596 214.731 396.217 210.684 396.585 206.61C396.796 203.948 395.961 201.307 394.258 199.249C392.554 197.19 390.116 195.875 387.459 195.581L381.387 194.911C362.12 210.614 347.324 196.14 347.324 196.14C343.671 203.107 340.857 210.481 338.939 218.109C335.622 231.076 343.883 254.111 343.883 254.111Z" fill="#F5F6FF"/>
<path d="M345.037 257.606C345.037 257.606 336.057 285.533 335.48 295.04C334.903 304.548 352.647 430.111 353.36 434.492C354.033 438.622 359.166 441.254 359.166 441.254C360.95 442.128 363 442.285 364.897 441.695C369.572 440.376 371.049 438.797 371.049 438.797C371.049 438.797 378.04 349.246 373.714 317.257C371.08 297.476 369.619 277.557 369.337 257.604L345.037 257.606Z" fill="#0085B6"/>
<path d="M383.086 256.773C383.086 256.773 396.785 275.136 398.063 287.548C399.34 299.96 400.066 343.564 402.787 355.665C405.508 367.766 415.505 391.054 415.505 428.798C415.505 428.798 414.466 430.961 411.257 432.114C410.032 432.527 408.785 432.871 407.522 433.146C406.236 433.439 404.889 433.291 403.698 432.726C402.506 432.161 401.54 431.212 400.954 430.031C394.196 416.437 372.667 372.591 371.563 363.489C370.782 357.048 363.985 314.42 349.158 289.406C345.598 283.401 351.343 259.519 351.343 259.519L383.086 256.773Z" fill="#05ABE8"/>
<path d="M356.984 176.127C356.984 176.127 356.669 177.467 353.331 177.261C353.331 177.261 350.528 177.088 350.614 175.615C350.614 175.615 353.331 174.566 356.984 176.127Z" fill="white"/>
<path d="M343.603 253.295C343.603 253.295 347.208 256.144 354.37 256.288C362.925 256.46 384.124 254.109 384.124 254.109C384.707 255.853 385.012 257.677 385.027 259.515C385.027 259.515 359.137 266.039 344.136 260.467C344.136 260.467 342.201 256.831 343.603 253.295Z" fill="#233862"/>
<path d="M356.221 259.24C356.221 256.806 354.47 254.825 352.318 254.825C350.165 254.825 348.414 256.804 348.414 259.24C348.414 261.675 350.165 263.653 352.318 263.653C354.47 263.653 356.221 261.673 356.221 259.24ZM354.927 259.24C354.927 260.964 353.757 262.361 352.317 262.361C350.878 262.361 349.707 260.96 349.707 259.24C349.707 257.519 350.878 256.118 352.317 256.118C353.757 256.118 354.927 257.518 354.927 259.24Z" fill="white"/>
<path d="M374.373 253.295C381.369 249.72 386.319 246.192 389.775 242.834C390.514 239.564 391.281 235.733 391.713 233.025C392.347 229.041 394.55 219.183 395.657 213.837L366.533 255.751C366.533 255.751 365.222 257.972 374.373 253.295Z" fill="#E7E9FF"/>
<path d="M364.061 225.365C364.061 225.365 351.108 245.908 347.355 249.602C343.603 253.295 362.674 246.665 362.674 246.665L364.061 225.365Z" fill="#E7E9FF"/>
<path d="M334.602 258.327C334.171 258.655 326.486 257.68 324.014 259.239C321.542 260.798 319.166 265.122 320.276 266.666C321.385 268.211 326.642 263.574 328.187 263.653C329.732 263.733 334.171 262.361 334.171 262.361L334.602 258.327Z" fill="#FFB27D"/>
<path d="M395.654 213.837C395.654 213.837 381.997 250.166 369.334 257.605C356.671 265.044 334.168 263.245 334.168 263.245C333.658 262.282 333.374 261.216 333.337 260.128C333.249 259.08 334.168 257.604 334.168 257.604C334.168 257.604 357.047 242.306 358.062 239.717C362.67 227.93 369.346 212.846 372.129 210.838C374.912 208.831 392.531 206.27 395.654 213.837Z" fill="#F5F6FF"/>
<path d="M349.546 149.878L343.485 141.521C348.384 141.019 353.215 139.988 357.892 138.449C365.503 135.949 365.964 133.891 369.891 131.845C369.79 131.528 376.185 144.437 376.185 144.437C376.185 144.437 374.886 147.042 363.675 149.878C352.465 152.713 349.546 149.878 349.546 149.878Z" fill="white"/>
<path opacity="0.61" d="M349.546 149.878L343.485 141.521C347.178 138.639 351.301 136.355 355.703 134.751C363.314 132.251 365.965 133.891 369.891 131.845C369.791 131.528 376.186 144.437 376.186 144.437C376.186 144.437 374.887 147.042 363.676 149.878C352.465 152.713 349.546 149.878 349.546 149.878Z" fill="white"/>
<defs>
<filter id="filter0_i" x="0" y="0" width="588" height="589" filterUnits="userSpaceOnUse" color-interpolation-filters="sRGB">
<feFlood flood-opacity="0" result="BackgroundImageFix"/>
<feBlend mode="normal" in="SourceGraphic" in2="BackgroundImageFix" result="shape"/>
<feColorMatrix in="SourceAlpha" type="matrix" values="0 0 0 0 0 0 0 0 0 0 0 0 0 0 0 0 0 0 127 0" result="hardAlpha"/>
<feOffset dx="3" dy="4"/>
<feGaussianBlur stdDeviation="2"/>
<feComposite in2="hardAlpha" operator="arithmetic" k2="-1" k3="1"/>
<feColorMatrix type="matrix" values="0 0 0 0 0 0 0 0 0 0 0 0 0 0 0 0 0 0 0.25 0"/>
<feBlend mode="normal" in2="shape" result="effect1_innerShadow"/>
</filter>
</defs>
</svg>
