<svg width="32" height="32" viewBox="0 0 32 32" fill="none" xmlns="http://www.w3.org/2000/svg">
<path d="M1.2 6.404V1.28C1.2 0.572 1.772 0 2.48 0H29.52C30.228 0 30.8 0.572 30.8 1.28V6.404C31.468 6.444 32 7 32 7.68V12.948C32.0025 13.9162 31.8065 14.8746 31.424 15.764C31.252 16.172 31.04 16.556 30.8 16.92V30.72C30.8 31.424 30.228 32 29.52 32H18.56V24.96H13.44V32H2.48C1.772 32 1.2 31.428 1.2 30.72V16.92C0.956223 16.5551 0.747303 16.168 0.576 15.764C0.196001 14.872 0 13.924 0 12.948V7.68C0 7 0.532 6.444 1.2 6.404ZM4.08 29.124H10.88V23.68C10.88 22.972 11.452 22.4 12.16 22.4H19.84C20.548 22.4 21.12 22.972 21.12 23.68V29.124H27.92V19.436C27.804 19.492 27.684 19.548 27.56 19.596C26.668 19.972 25.72 20.16 24.744 20.16C23.768 20.16 22.824 19.972 21.928 19.596C21.376 19.364 20.856 19.068 20.38 18.712C20.372 18.708 20.364 18.708 20.356 18.712C19.8785 19.0695 19.3585 19.3664 18.808 19.596C17.916 19.972 16.968 20.16 15.992 20.16C15.016 20.16 14.072 19.972 13.176 19.596C12.624 19.364 12.104 19.068 11.628 18.712C11.62 18.708 11.612 18.708 11.604 18.712C11.1265 19.0695 10.6065 19.3664 10.056 19.596C9.16399 19.972 8.21599 20.16 7.23999 20.16C6.264 20.16 5.32 19.972 4.424 19.596C4.304 19.544 4.184 19.492 4.064 19.436V29.124H4.08ZM4.08 6.4H27.92V2.88H4.08V6.4Z" fill="#05ABE8"/>
</svg>
