<svg width="32" height="36" viewBox="0 0 32 36" fill="none" xmlns="http://www.w3.org/2000/svg">
<path d="M9.185 22.5001L16 29.2072L22.815 22.5001C27.9214 22.7181 32 26.8313 32 31.9071C32 32.9926 31.5619 34.0337 30.7822 34.8012C30.0024 35.5688 28.9449 36 27.8421 36H4.15786C3.05512 36 1.99756 35.5688 1.21781 34.8012C0.438057 34.0337 0 32.9926 0 31.9071C0 26.8313 4.07857 22.7181 9.185 22.5001ZM16 21.3751C13.5752 21.3751 11.2496 20.4269 9.53502 18.7391C7.8204 17.0513 6.85714 14.7621 6.85714 12.3752V4.62823C6.85658 4.1698 6.99828 3.72213 7.26329 3.34516C7.5283 2.96819 7.90396 2.67989 8.34 2.51887L14.395 0.286466C15.4298 -0.0954887 16.5702 -0.0954887 17.605 0.286466L23.66 2.52168C24.0956 2.68254 24.4709 2.9704 24.7359 3.34682C25.0009 3.72323 25.1428 4.17028 25.1429 4.62823V12.3752C25.1429 14.7621 24.1796 17.0513 22.465 18.7391C20.7504 20.4269 18.4248 21.3751 16 21.3751ZM18.8571 5.03955C18.8571 4.94631 18.8195 4.85689 18.7525 4.79096C18.6856 4.72503 18.5947 4.68799 18.5 4.68799H16.9521V3.16433C16.9521 3.07109 16.9145 2.98167 16.8475 2.91574C16.7806 2.84981 16.6897 2.81277 16.595 2.81277H15.405C15.3103 2.81277 15.2194 2.84981 15.1525 2.91574C15.0855 2.98167 15.0479 3.07109 15.0479 3.16433V4.68799H13.5C13.4053 4.68799 13.3144 4.72503 13.2475 4.79096C13.1805 4.85689 13.1429 4.94631 13.1429 5.03955V6.21095C13.1429 6.30419 13.1805 6.39361 13.2475 6.45954C13.3144 6.52547 13.4053 6.56251 13.5 6.56251H15.0479V8.08617C15.0479 8.17941 15.0855 8.26883 15.1525 8.33476C15.2194 8.40069 15.3103 8.43773 15.405 8.43773H16.595C16.6897 8.43773 16.7806 8.40069 16.8475 8.33476C16.9145 8.26883 16.9521 8.17941 16.9521 8.08617V6.56251H18.5C18.5947 6.56251 18.6856 6.52547 18.7525 6.45954C18.8195 6.39361 18.8571 6.30419 18.8571 6.21095V5.03955ZM21.7143 11.2502H10.2857V12.3752C10.2857 13.867 10.8878 15.2978 11.9594 16.3526C13.031 17.4075 14.4845 18.0001 16 18.0001C17.5155 18.0001 18.969 17.4075 20.0406 16.3526C21.1122 15.2978 21.7143 13.867 21.7143 12.3752V11.2502Z" fill="white"/>
</svg>
